<?xml version="1.0" encoding="UTF-8" standalone="no"?>
<!-- Created with Inkscape (http://www.inkscape.org/) -->

<svg
   xmlns:dc="http://purl.org/dc/elements/1.1/"
   xmlns:cc="http://creativecommons.org/ns#"
   xmlns:rdf="http://www.w3.org/1999/02/22-rdf-syntax-ns#"
   xmlns:svg="http://www.w3.org/2000/svg"
   xmlns="http://www.w3.org/2000/svg"
   xmlns:sodipodi="http://sodipodi.sourceforge.net/DTD/sodipodi-0.dtd"
   xmlns:inkscape="http://www.inkscape.org/namespaces/inkscape"
   version="1.1"
   width="704.44"
   height="679"
   id="diagram"
   inkscape:version="0.48.3.1 r9886"
   sodipodi:docname="4waydiagram_ab_cd.svg">
  <sodipodi:namedview
     pagecolor="#ffffff"
     bordercolor="#666666"
     borderopacity="1"
     objecttolerance="10"
     gridtolerance="10"
     guidetolerance="10"
     inkscape:pageopacity="0"
     inkscape:pageshadow="2"
     inkscape:window-width="1855"
     inkscape:window-height="1056"
     id="namedview42"
     showgrid="false"
     inkscape:zoom="1"
     inkscape:cx="199.82098"
     inkscape:cy="339.5"
     inkscape:window-x="65"
     inkscape:window-y="24"
     inkscape:window-maximized="1"
     inkscape:current-layer="layer1"
     showguides="true"
     inkscape:guide-bbox="true" />
  <defs
     id="defs3010">
    <linearGradient
       id="linearGradient5351">
      <stop
         id="stop5353"
         style="stop-color:#000000;stop-opacity:1"
         offset="0" />
    </linearGradient>
  </defs>
  <metadata
     id="metadata3013">
    <rdf:RDF>
      <cc:Work
         rdf:about="">
        <dc:format>image/svg+xml</dc:format>
        <dc:type
           rdf:resource="http://purl.org/dc/dcmitype/StillImage" />
        <dc:title></dc:title>
      </cc:Work>
    </rdf:RDF>
  </metadata>
  <g
     transform="matrix(1.0216727,0,0,1.0216727,-16.831008,-190.59292)"
     id="layer1">
    <path
       style="fill:#ffff72;fill-opacity:0.18431373;stroke:#8f8f8f;stroke-width:2.3599999;stroke-miterlimit:4;stroke-opacity:1;stroke-dasharray:none"
       d="M 460.375 60.53125 C 391.96434 60.620649 308.77627 94.265529 236.4375 157.25 C 229.79196 163.03619 223.39311 168.98324 217.21875 175 C 140.55358 150.84885 69.477287 159.25877 30.40625 204.53125 C -33.100979 278.11848 12.026343 421.16158 131.1875 524 C 250.34866 626.83842 398.43027 650.55598 461.9375 576.96875 C 496.00483 537.49418 498.79744 478.01433 475.6875 415.5 C 588.27344 312.78851 629.28841 174.45486 566.9375 102.84375 C 542.00438 74.20762 504.22798 60.473943 460.375 60.53125 z "
       transform="matrix(0.97878704,0,0,0.97878704,16.473973,186.54988)"
       id="path3861" />
    <path
       style="fill:#ffbe5c;fill-opacity:0.18431373;stroke:#8f8f8f;stroke-width:2.3599999;stroke-miterlimit:4;stroke-opacity:1;stroke-dasharray:none"
       d="M 241.84375 58.90625 C 197.99082 58.997609 160.2734 72.873259 135.4375 101.59375 C 73.597612 173.10604 114.44922 310.39986 226.28125 412.59375 C 202.15558 476.50515 204.76064 537.41188 239.6875 577.40625 C 303.62478 650.62014 451.56841 626.03481 570.125 522.5 C 688.68159 418.96519 732.96853 275.68264 669.03125 202.46875 C 630.32772 158.14975 560.83427 149.67199 485.71875 172.84375 C 479.42452 166.7397 472.90627 160.73907 466.125 154.875 C 393.57312 92.136126 310.25432 58.763731 241.84375 58.90625 z "
       transform="matrix(0.97878704,0,0,0.97878704,16.473973,186.54988)"
       id="path3857" />
    <text
       x="347.65958"
       y="542.78772"
       id="abcd"
       xml:space="preserve"
       style="font-size:12px;font-style:normal;font-variant:normal;font-weight:500;font-stretch:normal;line-height:125%;letter-spacing:0px;word-spacing:0px;fill:#000000;fill-opacity:1;stroke:none;font-family:Rekha;-inkscape-font-specification:Rekha Medium"><tspan
         x="347.65958"
         y="542.78772"
         id="tspan4196">abcd</tspan></text>
    <text
       x="533.0213"
       y="610.8728"
       id="ac"
       xml:space="preserve"
       style="font-size:12px;font-style:normal;font-variant:normal;font-weight:500;font-stretch:normal;line-height:125%;letter-spacing:0px;word-spacing:0px;fill:#000000;fill-opacity:1;stroke:none;font-family:Rekha;-inkscape-font-specification:Rekha Medium"><tspan
         x="533.0213"
         y="610.8728"
         id="tspan4208">ac</tspan></text>
    <text
       x="171.2766"
       y="611.04303"
       id="bd"
       xml:space="preserve"
       style="font-size:12px;font-style:normal;font-variant:normal;font-weight:500;font-stretch:normal;line-height:125%;letter-spacing:0px;word-spacing:0px;fill:#000000;fill-opacity:1;stroke:none;font-family:Rekha;-inkscape-font-specification:Rekha Medium"><tspan
         x="171.2766"
         y="611.04303"
         id="tspan4224">bd</tspan></text>
  </g>
</svg>
