<?xml version="1.0" encoding="UTF-8" standalone="no"?>
<!-- Created with Inkscape (http://www.inkscape.org/) -->

<svg
   xmlns:dc="http://purl.org/dc/elements/1.1/"
   xmlns:cc="http://creativecommons.org/ns#"
   xmlns:rdf="http://www.w3.org/1999/02/22-rdf-syntax-ns#"
   xmlns:svg="http://www.w3.org/2000/svg"
   xmlns="http://www.w3.org/2000/svg"
   xmlns:sodipodi="http://sodipodi.sourceforge.net/DTD/sodipodi-0.dtd"
   xmlns:inkscape="http://www.inkscape.org/namespaces/inkscape"
   version="1.1"
   width="704.44"
   height="679"
   id="diagram"
   inkscape:version="0.48.3.1 r9886"
   sodipodi:docname="4waydiagram_ad_bc.svg">
  <sodipodi:namedview
     pagecolor="#ffffff"
     bordercolor="#666666"
     borderopacity="1"
     objecttolerance="10"
     gridtolerance="10"
     guidetolerance="10"
     inkscape:pageopacity="0"
     inkscape:pageshadow="2"
     inkscape:window-width="1855"
     inkscape:window-height="1056"
     id="namedview42"
     showgrid="false"
     inkscape:zoom="1"
     inkscape:cx="199.82098"
     inkscape:cy="339.5"
     inkscape:window-x="65"
     inkscape:window-y="24"
     inkscape:window-maximized="1"
     inkscape:current-layer="layer1"
     showguides="true"
     inkscape:guide-bbox="true" />
  <defs
     id="defs3010">
    <linearGradient
       id="linearGradient5351">
      <stop
         id="stop5353"
         style="stop-color:#000000;stop-opacity:1"
         offset="0" />
    </linearGradient>
  </defs>
  <metadata
     id="metadata3013">
    <rdf:RDF>
      <cc:Work
         rdf:about="">
        <dc:format>image/svg+xml</dc:format>
        <dc:type
           rdf:resource="http://purl.org/dc/dcmitype/StillImage" />
        <dc:title></dc:title>
      </cc:Work>
    </rdf:RDF>
  </metadata>
  <g
     transform="matrix(1.0216727,0,0,1.0216727,-16.831008,-190.59292)"
     id="layer1">
    <path
       style="fill:#ffff72;fill-opacity:0.18431373;stroke:#8f8f8f;stroke-width:2.3599999;stroke-miterlimit:4;stroke-opacity:1;stroke-dasharray:none"
       d="M 241.84375 58.90625 C 197.99082 58.997609 160.2734 72.873259 135.4375 101.59375 C 120.39197 118.99255 111.40701 140.26583 108.0625 164 C 76.544716 168.96474 49.603153 182.28737 30.40625 204.53125 C -33.100979 278.11848 12.026343 421.16158 131.1875 524 C 182.09182 567.93143 238.26309 597.39498 290.875 611.03125 C 307.68153 616.79362 326.36097 619.61857 346.3125 619.5625 C 346.40644 619.56624 346.49986 619.55888 346.59375 619.5625 C 371.66744 620.52954 394.92676 617.17116 415.21875 609.3125 C 466.50495 594.91015 520.85044 565.5312 570.125 522.5 C 688.68159 418.96519 732.96853 275.68264 669.03125 202.46875 C 650.31564 181.0377 624.39219 167.98856 594.125 162.84375 C 590.45385 140.06429 581.5425 119.61785 566.9375 102.84375 C 542.00438 74.20762 504.22798 60.473943 460.375 60.53125 C 427.26733 60.574515 390.68753 68.497634 353.5625 83.78125 C 314.73038 67.303423 276.38023 58.834301 241.84375 58.90625 z "
       transform="matrix(0.97878704,0,0,0.97878704,16.473973,186.54988)"
       id="path3861" />
    <text
       x="347.65958"
       y="542.78772"
       id="abcd"
       xml:space="preserve"
       style="font-size:12px;font-style:normal;font-variant:normal;font-weight:500;font-stretch:normal;line-height:125%;letter-spacing:0px;word-spacing:0px;fill:#000000;fill-opacity:1;stroke:none;font-family:Rekha;-inkscape-font-specification:Rekha Medium"><tspan
         x="347.65958"
         y="542.78772"
         id="tspan4196">abcd</tspan></text>
  </g>
</svg>
