<?xml version="1.0" encoding="UTF-8" standalone="no"?>
<!-- Created with Inkscape (http://www.inkscape.org/) -->

<svg
   xmlns:osb="http://www.openswatchbook.org/uri/2009/osb"
   xmlns:dc="http://purl.org/dc/elements/1.1/"
   xmlns:cc="http://creativecommons.org/ns#"
   xmlns:rdf="http://www.w3.org/1999/02/22-rdf-syntax-ns#"
   xmlns:svg="http://www.w3.org/2000/svg"
   xmlns="http://www.w3.org/2000/svg"
   xmlns:sodipodi="http://sodipodi.sourceforge.net/DTD/sodipodi-0.dtd"
   xmlns:inkscape="http://www.inkscape.org/namespaces/inkscape"
   width="712"
   height="641"
   id="diagram"
   sodipodi:version="0.32"
   inkscape:version="0.48.4 r9939"
   version="1.0"
   sodipodi:docname="6waydiagram_bcd.svg">
  <defs
     id="defs4">
    <linearGradient
       id="linearGradient5216"
       osb:paint="solid">
      <stop
         style="stop-color:#00a300;stop-opacity:1;"
         offset="0"
         id="stop5218" />
    </linearGradient>
    <linearGradient
       id="linearGradient5210"
       osb:paint="solid">
      <stop
         style="stop-color:#00a300;stop-opacity:1;"
         offset="0"
         id="stop5212" />
    </linearGradient>
  </defs>
  <sodipodi:namedview
     id="base"
     pagecolor="#ffffff"
     bordercolor="#666666"
     borderopacity="1.0"
     gridtolerance="10000"
     guidetolerance="10"
     objecttolerance="10"
     inkscape:pageopacity="0.0"
     inkscape:pageshadow="2"
     inkscape:zoom="1.4142136"
     inkscape:cx="289.98875"
     inkscape:cy="359.0199"
     inkscape:document-units="px"
     inkscape:current-layer="layer1"
     inkscape:window-width="1861"
     inkscape:window-height="1056"
     inkscape:window-x="59"
     inkscape:window-y="24"
     showgrid="false"
     inkscape:window-maximized="1"
     showguides="true"
     inkscape:guide-bbox="true" />
  <metadata
     id="metadata7">
    <rdf:RDF>
      <cc:Work
         rdf:about="">
        <dc:format>image/svg+xml</dc:format>
        <dc:type
           rdf:resource="http://purl.org/dc/dcmitype/StillImage" />
        <dc:title />
      </cc:Work>
    </rdf:RDF>
  </metadata>
  <g
     inkscape:label="Layer 1"
     inkscape:groupmode="layer"
     id="layer1"
     transform="translate(-266.937,-95.869222)">
    <path
       sodipodi:type="inkscape:offset"
       inkscape:radius="7.5"
       inkscape:original="M 277.4375 439.1875 L 277.4375 500.3125 L 476.4375 500.3125 L 476.4375 439.1875 L 277.4375 439.1875 z "
       style="color:#000000;fill:#ffa76d;fill-opacity:0.18000004;fill-rule:nonzero;stroke:#000000;stroke-width:0.23462614;stroke-linecap:butt;stroke-linejoin:miter;stroke-miterlimit:4;stroke-opacity:1;stroke-dasharray:none;stroke-dashoffset:0;marker:none;visibility:visible;display:inline;overflow:visible"
       id="elipseA"
       d="m 277.4375,431.6875 a 7.50075,7.50075 0 0 0 -7.5,7.5 l 0,61.125 a 7.50075,7.50075 0 0 0 7.5,7.5 l 199,0 a 7.50075,7.50075 0 0 0 7.5,-7.5 l 0,-61.125 a 7.50075,7.50075 0 0 0 -7.5,-7.5 l -199,0 z"
       transform="matrix(3.2788298,0,0,3.116383,-612.03752,-923.52124)"
       inkscape:label="#path6835" />
    <path
       style="color:#000000;fill:#ffff8e;fill-opacity:0.18000004;fill-rule:nonzero;stroke:#000000;stroke-width:0.75;stroke-linecap:butt;stroke-linejoin:miter;stroke-miterlimit:4;stroke-opacity:1;stroke-dasharray:none;stroke-dashoffset:0;marker:none;visibility:visible;display:inline;overflow:visible"
       d="M 374 87.5625 A 22.550787 24.017249 0 0 0 351.46875 111.5625 L 351.46875 188.75 C 317.35522 190.10274 286.5832 204.43723 263.96875 226.96875 C 249.59679 215.44361 235.20573 203.88416 217.875 197.25 C 155.69202 172.11685 78.71602 203.08651 49.84375 263.28125 C 33.32973 290.87262 38.55145 324.26131 39.34375 354.78125 C 50.91217 403.79328 92.14909 445.52093 141.65625 456.21875 C 171.40501 460.19293 204.62539 458.76579 231.09375 443.125 C 245.20766 436.89303 256.50883 426.91564 267.9375 417.0625 C 290.12052 437.39522 319.31795 450.22523 351.46875 451.5 L 351.46875 539.0625 A 22.550787 24.017249 0 0 0 374 563.03125 L 685.15625 563.03125 A 22.550787 24.017249 0 0 0 707.65625 539.0625 L 707.65625 111.5625 A 22.550787 24.017249 0 0 0 685.15625 87.5625 L 374 87.5625 z "
       transform="translate(266.937,95.869222)"
       id="elipseB" />
    <path
       style="fill:#7f93f6;fill-opacity:0.18431373000000001;stroke:#000000;stroke-width:0.75000000000000000;stroke-miterlimit:4;stroke-opacity:1;stroke-dasharray:none"
       d="m 596.80293,613.34051 c -26.0871,-11.22629 -35.40094,-43.04438 -28.34345,-68.89512 3.8079,-19.73475 5.69263,-43.11563 -7.42333,-59.50708 -15.85774,-16.72909 -37.11281,-23.20107 -57.28683,-12.68964 -26.34584,7.91784 -59.92022,0.97441 -72.86458,-25.53863 -14.98172,-28.98897 -2.22542,-71.79184 31.19732,-80.64839 21.2475,-6.66156 42.71511,2.59046 63.61503,5.12114 19.40613,-5.78899 43.46738,-17.75763 43.93388,-41.12915 1.51068,-25.5544 -4.46431,-51.53941 0.4317,-76.81514 10.78241,-23.77111 38.47057,-36.44475 63.71205,-30.60522 23.77209,3.3052 44.77728,25.71304 41.69623,50.48992 1.22818,18.40257 -4.70038,36.43473 -3.51058,54.68103 4.63973,30.92853 42.15815,52.58634 70.82044,38.12406 31.0123,-12.21941 73.43989,9.33868 75.06926,44.33842 4.32058,27.607 -11.49113,59.53753 -40.81937,64.46982 -26.00099,6.62483 -54.47563,-12.54474 -80.74461,-1.44056 -19.00488,8.03361 -23.14178,25.73873 -24.74195,44.06384 1.0997,23.5615 10.91076,49.17791 0.0467,71.69636 -10.28342,19.86013 -32.51767,30.05821 -54.35497,27.85429 -6.89709,-0.29928 -13.99569,-0.87931 -20.43295,-3.56995 z"
       id="elipseE"
       sodipodi:nodetypes="cccccccccccccccscccc"
       inkscape:label="#path9498"
       inkscape:connector-curvature="0" />
    <path
       style="fill:#2fe6e6;fill-opacity:0.22463769000000000;stroke:#000000;stroke-width:0.75000000000000000;stroke-miterlimit:4;stroke-opacity:1;stroke-dasharray:none"
       d="m 635.45155,571.96063 c 6.59549,-5.18803 8.53199,-10.17101 9.77426,-25.1514 1.27239,-15.34349 3.12802,-19.94054 10.38482,-25.72687 11.4196,-9.10567 28.80763,-9.41627 39.70829,4.7934 6.86455,8.94837 20.15728,14.71236 32.26664,8.72329 6.55708,-3.24303 11.18205,-9.58528 11.38754,-16.26343 0.25201,-8.18983 -1.19366,-13.82948 -5.63664,-18.27248 -13.37276,-13.37274 -17.19606,-22.24487 -14.88797,-34.54818 2.79213,-14.88331 12.08834,-20.11453 30.20404,-20.11453 10.67614,0 16.15781,-1.98522 22.21964,-8.0471 17.39063,-17.39058 4.05896,-42.51591 -23.09812,-42.51591 -11.60888,0 -16.89145,-1.84037 -23.09813,-8.0471 -13.00805,-13.00803 -9.97131,-29.37005 8.96566,-48.30703 7.7975,-7.7975 7.53109,-19.48656 -0.65935,-28.93027 -9.62577,-11.09854 -23.88497,-10.03127 -37.09957,2.77682 -7.98718,7.74147 -13.70586,10.38175 -22.48613,10.38175 -18.41587,0 -26.34352,-8.63544 -28.17222,-30.68765 -1.25402,-15.1215 -3.15329,-19.92612 -10.00835,-25.31831 -16.9704,-13.34892 -36.61123,0.26291 -36.61123,25.37296 0,28.20565 -27.89655,40.98415 -48.18819,22.07341 -12.16635,-11.3384 -22.80367,-15.2271 -30.45357,-11.13301 -18.11504,9.69489 -21.43072,24.82845 -8.31367,37.94553 16.45031,16.4503 19.17698,31.0696 8.35977,44.82149 -5.15666,6.55561 -10.18116,8.5328 -24.75479,9.74138 -21.72302,1.80143 -29.0988,7.85906 -29.0988,23.89839 0,16.03934 7.37578,22.09697 29.0988,23.89842 14.57363,1.20854 19.59813,3.18576 24.75479,9.74137 9.33059,11.8619 8.17921,24.83647 -3.37148,37.99195 -13.01533,14.82365 -15.19292,27.64298 -6.44186,37.92303 7.71358,9.06125 24.21346,10.27427 30.68064,3.12801 22.38689,-24.73774 57.72836,-17.99141 57.72836,13.60395 0,16.18912 4.49028,25.52556 14.1477,29.4166 10.72817,4.32248 13.70397,3.90711 22.69912,-3.16848 z"
       id="elipseF"
       sodipodi:nodetypes="csssssssssssssssssssssssssssssssc"
       inkscape:label="#path2376"
       inkscape:connector-curvature="0" />
    <text
       xml:space="preserve"
       style="font-size:18.11433983px;font-style:normal;font-weight:normal;line-height:125%;letter-spacing:0px;word-spacing:0px;fill:#ff6706;fill-opacity:1;stroke:none;font-family:Sans"
       x="394.97287"
       y="679.44971"
       id="labelA"
       sodipodi:linespacing="125%"><tspan
         sodipodi:role="line"
         id="tspan2996"
         x="394.97287"
         y="679.44971">Set A</tspan></text>
    <text
       xml:space="preserve"
       style="font-size:18.11433983px;font-style:normal;font-weight:normal;line-height:125%;letter-spacing:0px;word-spacing:0px;fill:#ffc113;fill-opacity:1;stroke:none;font-family:Sans"
       x="752.01154"
       y="159.47475"
       id="labelB"
       sodipodi:linespacing="125%"><tspan
         sodipodi:role="line"
         id="tspan2996-1"
         x="752.01154"
         y="159.47475">Set B</tspan></text>
    <text
       xml:space="preserve"
       style="font-size:18.11433983px;font-style:normal;font-weight:normal;line-height:125%;letter-spacing:0px;word-spacing:0px;fill:#009d00;fill-opacity:0.77173911;stroke:none;font-family:Sans"
       x="271.96078"
       y="322.73135"
       id="labelD"
       sodipodi:linespacing="125%"><tspan
         sodipodi:role="line"
         id="tspan2996-8"
         x="271.96078"
         y="322.73135">Set D</tspan></text>
    <text
       xml:space="preserve"
       style="font-size:18.11433983px;font-style:normal;font-weight:normal;line-height:125%;letter-spacing:0px;word-spacing:0px;fill:#3352f5;fill-opacity:0.84782607;stroke:none;font-family:Sans"
       x="543.28156"
       y="207.31473"
       id="labelE"
       sodipodi:linespacing="125%"><tspan
         sodipodi:role="line"
         id="tspan2996-18"
         x="543.28156"
         y="207.31473">Set E </tspan></text>
    <text
       xml:space="preserve"
       style="font-size:18.11433983px;font-style:normal;font-weight:normal;line-height:125%;letter-spacing:0px;word-spacing:0px;fill:#6c6c73;fill-opacity:0.94202899;stroke:none;font-family:Sans"
       x="476.14618"
       y="255.59599"
       id="labelC"
       sodipodi:linespacing="125%"><tspan
         sodipodi:role="line"
         id="tspan2996-3"
         x="476.14618"
         y="255.59599">Set C</tspan></text>
    <text
       xml:space="preserve"
       style="font-size:18.11433983px;font-style:normal;font-weight:normal;line-height:125%;letter-spacing:0px;word-spacing:0px;fill:#22c4e6;fill-opacity:0.8405797;stroke:none;font-family:Sans"
       x="372.39157"
       y="231.18307"
       id="labelF"
       sodipodi:linespacing="125%"><tspan
         sodipodi:role="line"
         id="tspan2996-7"
         x="372.39157"
         y="231.18307">Set F</tspan></text>
    <path
       style="fill:none;stroke:#000000;stroke-width:1.1933744;stroke-linecap:butt;stroke-linejoin:miter;stroke-miterlimit:4;stroke-opacity:0.49275363;stroke-dasharray:1.19337442, 3.58012327;stroke-dashoffset:0"
       d="M 509.21919,297.87808 412.6879,241.628"
       id="path3829"
       inkscape:connector-curvature="0" />
    <path
       style="fill:none;stroke:#000000;stroke-width:1.618;stroke-linecap:butt;stroke-linejoin:miter;stroke-miterlimit:4;stroke-opacity:0.33695655000000002;stroke-dasharray:1.618,6.472;stroke-dashoffset:0"
       d="M 554.67058,295.72439 528.9485,277.53259"
       id="path3851"
       inkscape:connector-curvature="0" />
    <text
       xml:space="preserve"
       style="font-size:10.35105038px;font-style:normal;font-weight:normal;line-height:125%;letter-spacing:0px;word-spacing:0px;fill:#000000;fill-opacity:1;stroke:none;font-family:Sans"
       x="371.96866"
       y="603.72095"
       id="a"
       sodipodi:linespacing="125%"><tspan
         sodipodi:role="line"
         id="tspan3871"
         x="371.96866"
         y="603.72095">a</tspan></text>
    <text
       xml:space="preserve"
       style="font-size:10.35105038px;font-style:normal;font-weight:normal;line-height:125%;letter-spacing:0px;word-spacing:0px;fill:#000000;fill-opacity:1;stroke:none;font-family:Sans"
       x="522.59601"
       y="315.20978"
       id="f"
       sodipodi:linespacing="125%"><tspan
         sodipodi:role="line"
         id="tspan3883"
         x="522.59601"
         y="315.20978">f</tspan></text>
    <text
       xml:space="preserve"
       style="font-size:10.35105038px;font-style:normal;font-weight:normal;line-height:125%;letter-spacing:0px;word-spacing:0px;fill:#000000;fill-opacity:1;stroke:none;font-family:Sans"
       x="583.33521"
       y="258.9137"
       id="e"
       sodipodi:linespacing="125%"><tspan
         sodipodi:role="line"
         id="tspan3891"
         x="583.33521"
         y="258.9137">e</tspan></text>
    <text
       xml:space="preserve"
       style="font-size:10.35105038px;font-style:normal;font-weight:normal;line-height:125%;letter-spacing:0px;word-spacing:0px;fill:#000000;fill-opacity:1;stroke:none;font-family:Sans"
       x="601.40259"
       y="280.49466"
       id="ef"
       sodipodi:linespacing="125%"><tspan
         sodipodi:role="line"
         id="tspan3899"
         x="601.40259"
         y="280.49466">ef</tspan></text>
    <text
       xml:space="preserve"
       style="font-size:10.35105038px;font-style:normal;font-weight:normal;line-height:125%;letter-spacing:0px;word-spacing:0px;fill:#000000;fill-opacity:1;stroke:none;font-family:Sans"
       x="521.05994"
       y="532.75586"
       id="af"
       sodipodi:linespacing="125%"><tspan
         sodipodi:role="line"
         id="tspan3923"
         x="521.05994"
         y="532.75586">af</tspan></text>
    <text
       xml:space="preserve"
       style="font-size:10.35105038px;font-style:normal;font-weight:normal;line-height:125%;letter-spacing:0px;word-spacing:0px;fill:#000000;fill-opacity:1;stroke:none;font-family:Sans"
       x="580.76868"
       y="587.06366"
       id="ae"
       sodipodi:linespacing="125%"><tspan
         sodipodi:role="line"
         id="tspan3963"
         x="580.76868"
         y="587.06366">ae</tspan></text>
    <text
       xml:space="preserve"
       style="font-size:10.35105038px;font-style:normal;font-weight:normal;line-height:125%;letter-spacing:0px;word-spacing:0px;fill:#000000;fill-opacity:1;stroke:none;font-family:Sans"
       x="597.73438"
       y="557.50879"
       id="aef"
       sodipodi:linespacing="125%"><tspan
         sodipodi:role="line"
         id="tspan3971"
         x="597.73438"
         y="557.50879">aef</tspan></text>
    <text
       xml:space="preserve"
       style="font-size:10.35105038px;font-style:normal;font-weight:normal;line-height:125%;letter-spacing:0px;word-spacing:0px;fill:#000000;fill-opacity:1;stroke:none;font-family:Sans"
       x="720.34009"
       y="465.46274"
       id="abcde"
       sodipodi:linespacing="125%"><tspan
         sodipodi:role="line"
         id="tspan4011"
         x="720.34009"
         y="465.46274">abcde</tspan></text>
    <text
       xml:space="preserve"
       style="font-size:10.35105038px;font-style:normal;font-weight:normal;line-height:125%;letter-spacing:0px;word-spacing:0px;fill:#000000;fill-opacity:1;stroke:none;font-family:Sans"
       x="721.53821"
       y="379.20401"
       id="bcde"
       sodipodi:linespacing="125%"><tspan
         sodipodi:role="line"
         id="tspan4015"
         x="721.53821"
         y="379.20401">bcde</tspan></text>
    <text
       xml:space="preserve"
       style="font-size:10.35105038px;font-style:normal;font-weight:normal;line-height:125%;letter-spacing:0px;word-spacing:0px;fill:#000000;fill-opacity:1;stroke:none;font-family:Sans"
       x="682.99799"
       y="491.62646"
       id="abcdf"
       sodipodi:linespacing="125%"><tspan
         sodipodi:role="line"
         id="tspan4043"
         x="682.99799"
         y="491.62646">abcdf</tspan></text>
    <text
       xml:space="preserve"
       style="font-size:10.35105038px;font-style:normal;font-weight:normal;line-height:125%;letter-spacing:0px;word-spacing:0px;fill:#000000;fill-opacity:1;stroke:none;font-family:Sans"
       x="654.69019"
       y="448.09122"
       id="abcdef"
       sodipodi:linespacing="125%"><tspan
         sodipodi:role="line"
         id="tspan4051"
         x="654.69019"
         y="448.09122">abcdef</tspan></text>
    <text
       xml:space="preserve"
       style="font-size:10.35105038px;font-style:normal;font-weight:normal;line-height:125%;letter-spacing:0px;word-spacing:0px;fill:#000000;fill-opacity:1;stroke:none;font-family:Sans"
       x="656.88336"
       y="404.36282"
       id="bcdef"
       sodipodi:linespacing="125%"><tspan
         sodipodi:role="line"
         id="tspan4063"
         x="656.88336"
         y="404.36282">bcdef</tspan></text>
    <text
       xml:space="preserve"
       style="font-size:10.35105038px;font-style:normal;font-weight:normal;line-height:125%;letter-spacing:0px;word-spacing:0px;fill:#000000;fill-opacity:1;stroke:none;font-family:Sans"
       x="688.78522"
       y="349.25305"
       id="bcdf"
       sodipodi:linespacing="125%"><tspan
         sodipodi:role="line"
         id="tspan4087"
         x="688.78522"
         y="349.25305">bcdf</tspan></text>
    <text
       xml:space="preserve"
       style="font-size:10.35105038px;font-style:normal;font-weight:normal;line-height:125%;letter-spacing:0px;word-spacing:0px;fill:#000000;fill-opacity:1;stroke:none;font-family:Sans"
       x="718.34009"
       y="364.0354"
       id="bcd"
       sodipodi:linespacing="125%"><tspan
         sodipodi:role="line"
         id="tspan4119"
         x="718.34009"
         y="364.0354">bcd</tspan></text>
    <text
       xml:space="preserve"
       style="font-size:10.35105038px;font-style:normal;font-weight:normal;line-height:125%;letter-spacing:0px;word-spacing:0px;fill:#000000;fill-opacity:1;stroke:none;font-family:Sans"
       x="718.13721"
       y="481.43332"
       id="abcd"
       sodipodi:linespacing="125%"><tspan
         sodipodi:role="line"
         id="tspan4123"
         x="718.13721"
         y="481.43332">abcd</tspan></text>
    <text
       xml:space="preserve"
       style="font-size:18.11433983px;font-style:normal;font-weight:normal;line-height:125%;letter-spacing:0px;word-spacing:0px;fill:#009d00;fill-opacity:0.77173911;stroke:none;font-family:Sans"
       x="270.14035"
       y="338.46307"
       id="totalD"
       sodipodi:linespacing="125%"
       inkscape:label="#labelD-0"><tspan
         sodipodi:role="line"
         id="tspan2996-8-1"
         x="270.14035"
         y="338.46307">(total)</tspan></text>
    <text
       xml:space="preserve"
       style="font-size:18.11433983px;font-style:normal;font-weight:normal;line-height:125%;letter-spacing:0px;word-spacing:0px;fill:#22c4e6;fill-opacity:0.8405797;stroke:none;font-family:Sans"
       x="370.89606"
       y="246.46309"
       id="totalF"
       sodipodi:linespacing="125%"
       inkscape:label="#labelF-1"><tspan
         sodipodi:role="line"
         id="tspan2996-7-5"
         x="370.89606"
         y="246.46309">(total)</tspan></text>
    <text
       xml:space="preserve"
       style="font-size:18.11433983px;font-style:normal;font-weight:normal;line-height:125%;letter-spacing:0px;word-spacing:0px;fill:#6c6c73;fill-opacity:0.94202899;stroke:none;font-family:Sans"
       x="473.74622"
       y="271.4631"
       id="totalC"
       sodipodi:linespacing="125%"
       inkscape:label="#labelC-9"><tspan
         sodipodi:role="line"
         id="tspan2996-3-3"
         x="473.74622"
         y="271.4631">(total)</tspan></text>
    <text
       xml:space="preserve"
       style="font-size:18.11433983px;font-style:normal;font-weight:normal;line-height:125%;letter-spacing:0px;word-spacing:0px;fill:#3352f5;fill-opacity:0.84782607;stroke:none;font-family:Sans"
       x="541.84796"
       y="222.46309"
       id="totalE"
       sodipodi:linespacing="125%"
       inkscape:label="#labelE-6"><tspan
         sodipodi:role="line"
         id="tspan2996-18-0"
         x="541.84796"
         y="222.46309">(total)</tspan></text>
    <text
       xml:space="preserve"
       style="font-size:18.11433983px;font-style:normal;font-weight:normal;line-height:125%;letter-spacing:0px;word-spacing:0px;fill:#ffc113;fill-opacity:1;stroke:none;font-family:Sans"
       x="751.00714"
       y="175.46309"
       id="totalB"
       sodipodi:linespacing="125%"
       inkscape:label="#labelB-6"><tspan
         sodipodi:role="line"
         id="tspan2996-1-9"
         x="751.00714"
         y="175.46309">(total)</tspan></text>
    <text
       xml:space="preserve"
       style="font-size:18.11433983px;font-style:normal;font-weight:normal;line-height:125%;letter-spacing:0px;word-spacing:0px;fill:#ff6706;fill-opacity:1;stroke:none;font-family:Sans"
       x="392.45877"
       y="695.46307"
       id="totalA"
       sodipodi:linespacing="125%"
       inkscape:label="#labelA-4"><tspan
         sodipodi:role="line"
         id="tspan2996-9"
         x="392.45877"
         y="695.46307">(total)</tspan></text>
  </g>
</svg>
