<?xml version="1.0" encoding="UTF-8" standalone="no"?>
<!-- Created with Inkscape (http://www.inkscape.org/) -->
<svg
   xmlns:dc="http://purl.org/dc/elements/1.1/"
   xmlns:cc="http://web.resource.org/cc/"
   xmlns:rdf="http://www.w3.org/1999/02/22-rdf-syntax-ns#"
   xmlns:svg="http://www.w3.org/2000/svg"
   xmlns="http://www.w3.org/2000/svg"
   xmlns:sodipodi="http://sodipodi.sourceforge.net/DTD/sodipodi-0.dtd"
   xmlns:inkscape="http://www.inkscape.org/namespaces/inkscape"
   width="547.67059"
   height="369.94785"
   id="svg2"
   sodipodi:version="0.32"
   inkscape:version="0.44.1"
   version="1.0"
   sodipodi:docbase="C:\Temp"
   sodipodi:docname="Edwards_Venn_4.svg">
  <defs
     id="defs4" />
  <sodipodi:namedview
     id="base"
     pagecolor="#ffffff"
     bordercolor="#666666"
     borderopacity="1.0"
     gridtolerance="10000"
     guidetolerance="10"
     objecttolerance="10"
     inkscape:pageopacity="0.0"
     inkscape:pageshadow="2"
     inkscape:zoom="1.979899"
     inkscape:cx="372.84036"
     inkscape:cy="193.91873"
     inkscape:document-units="px"
     inkscape:current-layer="layer1"
     inkscape:window-width="1920"
     inkscape:window-height="1031"
     inkscape:window-x="-4"
     inkscape:window-y="-4" />
  <metadata
     id="metadata7">
    <rdf:RDF>
      <cc:Work
         rdf:about="">
        <dc:format>image/svg+xml</dc:format>
        <dc:type
           rdf:resource="http://purl.org/dc/dcmitype/StillImage" />
      </cc:Work>
    </rdf:RDF>
  </metadata>
  <g
     inkscape:label="Layer 1"
     inkscape:groupmode="layer"
     id="layer1"
     transform="translate(-266.937,-366.921)">
    <rect
       style="opacity:1;color:black;fill:white;fill-opacity:1;fill-rule:nonzero;stroke:none;stroke-width:1.97504687px;stroke-linecap:butt;stroke-linejoin:miter;marker:none;marker-start:none;marker-mid:none;marker-end:none;stroke-miterlimit:4;stroke-dasharray:none;stroke-dashoffset:0;stroke-opacity:1;visibility:visible;display:inline;overflow:visible"
       id="rect4170"
       width="547.30255"
       height="367.40216"
       x="266.93695"
       y="366.92096" />
    <path
       style="fill:none;stroke:#009600;stroke-width:3.80071187;stroke-miterlimit:4;stroke-dasharray:none;stroke-opacity:1"
       d="M 376.00544,653.16007 C 337.74292,644.89206 305.85982,612.63862 296.91895,574.75877 C 296.30661,551.17087 292.28292,525.35864 305.04608,504.03414 C 327.36055,457.51153 386.84972,433.57465 434.90898,452.99927 C 464.59258,464.36209 483.11749,494.44544 515.05334,501.41708 C 551.21349,512.97246 590.72301,497.23128 616.45428,471.13174 C 653.65484,438.20028 714.45543,438.30159 751.30606,471.72262 C 770.8069,489.54551 787.7672,514.52846 785.0813,542.16378 C 785.91267,565.94407 784.61503,591.61413 768.40936,610.64458 C 741.3288,651.57961 683.15511,666.74462 639.37308,644.60268 C 611.64784,631.87 593.22984,602.13446 561.13259,598.51541 C 538.4968,591.92058 513.94828,597.69215 493.32346,607.89342 C 476.07398,618.13937 463.75902,634.79793 445.11984,643.02803 C 424.66328,655.1163 398.99732,656.23158 376.00544,653.16007 z "
       id="path8609" />
    <path
       sodipodi:type="arc"
       style="opacity:1;color:black;fill:none;fill-opacity:1;fill-rule:nonzero;stroke:none;stroke-width:1px;stroke-linecap:butt;stroke-linejoin:miter;marker:none;marker-start:none;marker-mid:none;marker-end:none;stroke-miterlimit:4;stroke-dasharray:none;stroke-dashoffset:0;stroke-opacity:1;visibility:visible;display:inline;overflow:visible"
       id="path2378"
       sodipodi:cx="108.08632"
       sodipodi:cy="70.753784"
       sodipodi:rx="36.870567"
       sodipodi:ry="41.921329"
       d="M 144.95689 70.753784 A 36.870567 41.921329 0 1 1  71.215752,70.753784 A 36.870567 41.921329 0 1 1  144.95689 70.753784 z"
       transform="matrix(2.533807,0,0,2.533807,266.937,366.921)" />
    <path
       sodipodi:type="arc"
       style="opacity:1;color:black;fill:none;fill-opacity:1;fill-rule:nonzero;stroke:black;stroke-width:1.0173503;stroke-linecap:butt;stroke-linejoin:miter;marker:none;marker-start:none;marker-mid:none;marker-end:none;stroke-miterlimit:4;stroke-dasharray:none;stroke-dashoffset:0;stroke-opacity:1;visibility:visible;display:inline;overflow:visible"
       id="path3265"
       sodipodi:cx="105.87662"
       sodipodi:cy="71.574539"
       sodipodi:rx="41.353119"
       sodipodi:ry="41.353119"
       d="M 147.22974 71.574539 A 41.353119 41.353119 0 1 1  64.523499,71.574539 A 41.353119 41.353119 0 1 1  147.22974 71.574539 z"
       transform="matrix(2.457364,0,0,2.457364,282.0717,372.0733)" />
    <path
       sodipodi:type="inkscape:offset"
       inkscape:radius="7.323606"
       inkscape:original="M 372.46875 373 L 372.46875 503.375 L 473.53125 503.375 L 473.53125 373 L 372.46875 373 z "
       style="opacity:1;color:black;fill:none;fill-opacity:1;fill-rule:nonzero;stroke:black;stroke-width:0.94117677px;stroke-linecap:butt;stroke-linejoin:miter;marker:none;marker-start:none;marker-mid:none;marker-end:none;stroke-miterlimit:4;stroke-dasharray:none;stroke-dashoffset:0;stroke-opacity:1;visibility:visible;display:inline;overflow:visible"
       id="path6829"
       d="M 372.46875,365.6875 C 368.43287,365.69402 365.16277,368.96412 365.15625,373 L 365.15625,503.375 C 365.16277,507.41088 368.43287,510.68098 372.46875,510.6875 L 473.53125,510.6875 C 477.56713,510.68098 480.83723,507.41088 480.84375,503.375 L 480.84375,373 C 480.83723,368.96412 477.56713,365.69402 473.53125,365.6875 L 372.46875,365.6875 z "
       transform="matrix(2.379572,0,0,2.534314,-330.7504,-558.5293)" />
    <path
       sodipodi:type="inkscape:offset"
       inkscape:radius="7.5"
       inkscape:original="M 277.4375 439.1875 L 277.4375 500.3125 L 476.4375 500.3125 L 476.4375 439.1875 L 277.4375 439.1875 z "
       style="opacity:1;color:black;fill:none;fill-opacity:1;fill-rule:nonzero;stroke:red;stroke-width:1px;stroke-linecap:butt;stroke-linejoin:miter;marker:none;marker-start:none;marker-mid:none;marker-end:none;stroke-miterlimit:4;stroke-dasharray:none;stroke-dashoffset:0;stroke-opacity:1;visibility:visible;display:inline;overflow:visible"
       id="path6835"
       d="M 277.4375,431.6875 C 273.29554,431.68791 269.93791,435.04554 269.9375,439.1875 L 269.9375,500.3125 C 269.93791,504.45446 273.29554,507.81209 277.4375,507.8125 L 476.4375,507.8125 C 480.57946,507.81209 483.93709,504.45446 483.9375,500.3125 L 483.9375,439.1875 C 483.93709,435.04554 480.57946,431.68791 476.4375,431.6875 L 277.4375,431.6875 z "
       transform="matrix(2.534104,0,0,2.408554,-412.8156,-487.2993)" />
  </g>
</svg>
