<?xml version="1.0" encoding="UTF-8" standalone="no"?>
<!-- Created with Inkscape (http://www.inkscape.org/) -->

<svg
   xmlns:dc="http://purl.org/dc/elements/1.1/"
   xmlns:cc="http://creativecommons.org/ns#"
   xmlns:rdf="http://www.w3.org/1999/02/22-rdf-syntax-ns#"
   xmlns:svg="http://www.w3.org/2000/svg"
   xmlns="http://www.w3.org/2000/svg"
   xmlns:sodipodi="http://sodipodi.sourceforge.net/DTD/sodipodi-0.dtd"
   xmlns:inkscape="http://www.inkscape.org/namespaces/inkscape"
   width="547.67059"
   height="369.94785"
   id="svg2"
   sodipodi:version="0.32"
   inkscape:version="0.48.3.1 r9886"
   version="1.0"
   sodipodi:docname="6waydiagram.svg">
  <defs
     id="defs4" />
  <sodipodi:namedview
     id="base"
     pagecolor="#ffffff"
     bordercolor="#666666"
     borderopacity="1.0"
     gridtolerance="10000"
     guidetolerance="10"
     objecttolerance="10"
     inkscape:pageopacity="0.0"
     inkscape:pageshadow="2"
     inkscape:zoom="1.979899"
     inkscape:cx="372.84036"
     inkscape:cy="193.91873"
     inkscape:document-units="px"
     inkscape:current-layer="layer1"
     inkscape:window-width="1853"
     inkscape:window-height="1027"
     inkscape:window-x="65"
     inkscape:window-y="24"
     showgrid="false"
     inkscape:window-maximized="0" />
  <metadata
     id="metadata7">
    <rdf:RDF>
      <cc:Work
         rdf:about="">
        <dc:format>image/svg+xml</dc:format>
        <dc:type
           rdf:resource="http://purl.org/dc/dcmitype/StillImage" />
        <dc:title></dc:title>
      </cc:Work>
    </rdf:RDF>
  </metadata>
  <g
     inkscape:label="Layer 1"
     inkscape:groupmode="layer"
     id="layer1"
     transform="translate(-266.937,-366.921)">
    <rect
       style="opacity:1;color:black;fill:white;fill-opacity:1;fill-rule:nonzero;stroke:none;stroke-width:1.97504687px;stroke-linecap:butt;stroke-linejoin:miter;marker:none;marker-start:none;marker-mid:none;marker-end:none;stroke-miterlimit:4;stroke-dasharray:none;stroke-dashoffset:0;stroke-opacity:1;visibility:visible;display:inline;overflow:visible"
       id="rect4170"
       width="547.30255"
       height="367.40216"
       x="266.93695"
       y="366.92096" />
    <path
       style="fill:none;stroke:blue;stroke-width:2.53380799;stroke-opacity:1"
       d="M 521.459,700.4926 C 501.29711,691.81615 494.09873,667.22496 499.55324,647.24574 C 502.49625,631.99338 503.95289,613.92303 493.81599,601.2546 C 481.56004,588.32521 465.13267,583.32323 449.5408,591.44718 C 429.17893,597.56662 403.23036,592.20027 393.22607,571.70917 C 381.64717,549.30452 391.50612,516.22353 417.3375,509.37858 C 433.75902,504.23007 450.35065,511.38067 466.50354,513.33655 C 481.50192,508.86242 500.09811,499.61224 500.45865,481.54913 C 501.62621,461.79894 497.00833,441.71595 500.7923,422.18113 C 509.12568,403.80919 530.52498,394.01414 550.03333,398.52733 C 568.40603,401.08181 584.64027,418.40012 582.25903,437.54939 C 583.20825,451.77216 578.62625,465.70864 579.54581,479.81063 C 583.13171,503.71431 612.12852,520.45295 634.28069,509.27551 C 658.24912,499.83152 691.04006,516.49308 692.29935,543.54328 C 695.63859,564.87986 683.41822,589.55795 660.75135,593.36997 C 640.656,598.49009 618.64886,583.67453 598.34639,592.2566 C 583.65812,598.46552 580.46084,612.14925 579.22412,626.31215 C 580.07404,644.52209 587.6567,664.3202 579.26022,681.724 C 571.31249,697.07327 554.12834,704.95504 537.25098,703.2517 C 531.92044,703.0204 526.43415,702.57211 521.459,700.4926 z "
       id="path9498"
       sodipodi:nodetypes="cccccccccccccccscccc" />
    <path
       style="fill:none;stroke:#009600;stroke-width:3.80071187;stroke-miterlimit:4;stroke-dasharray:none;stroke-opacity:1"
       d="M 376.00544,653.16007 C 337.74292,644.89206 305.85982,612.63862 296.91895,574.75877 C 296.30661,551.17087 292.28292,525.35864 305.04608,504.03414 C 327.36055,457.51153 386.84972,433.57465 434.90898,452.99927 C 464.59258,464.36209 483.11749,494.44544 515.05334,501.41708 C 551.21349,512.97246 590.72301,497.23128 616.45428,471.13174 C 653.65484,438.20028 714.45543,438.30159 751.30606,471.72262 C 770.8069,489.54551 787.7672,514.52846 785.0813,542.16378 C 785.91267,565.94407 784.61503,591.61413 768.40936,610.64458 C 741.3288,651.57961 683.15511,666.74462 639.37308,644.60268 C 611.64784,631.87 593.22984,602.13446 561.13259,598.51541 C 538.4968,591.92058 513.94828,597.69215 493.32346,607.89342 C 476.07398,618.13937 463.75902,634.79793 445.11984,643.02803 C 424.66328,655.1163 398.99732,656.23158 376.00544,653.16007 z "
       id="path8609" />
    <path
       style="fill:none;stroke:fuchsia;stroke-width:2.53380799;stroke-opacity:1"
       d="M 551.3293,668.5114 C 556.42675,664.50173 557.9234,660.65055 558.88351,649.07267 C 559.8669,637.21418 561.30106,633.66127 566.90961,629.18919 C 575.73546,622.15171 589.17412,621.91166 597.59889,632.89386 C 602.90429,639.80977 613.17782,644.26458 622.53676,639.63581 C 627.60452,637.12938 631.17901,632.22766 631.33783,627.06632 C 631.5326,620.73666 630.41529,616.37795 626.98145,612.9441 C 616.64607,602.60873 613.69116,595.75174 615.47501,586.2429 C 617.63296,574.74006 624.81771,570.69702 638.81876,570.69702 C 647.07001,570.69702 651.30662,569.1627 655.99162,564.47767 C 669.43229,551.03704 659.12866,531.61847 638.13981,531.61847 C 629.16767,531.61847 625.08494,530.1961 620.28799,525.39912 C 610.23448,515.34562 612.58149,502.69993 627.21727,488.06414 C 633.24371,482.0377 633.03781,473.00359 626.70768,465.70485 C 619.26823,457.12714 608.24774,457.95199 598.03459,467.85096 C 591.86155,473.8341 587.44177,475.87469 580.65577,475.87469 C 566.42273,475.87469 560.2957,469.20063 558.88236,452.15717 C 557.91316,440.47025 556.44528,436.75691 551.14722,432.58946 C 538.03133,422.2725 522.85156,432.79265 522.85156,452.19941 C 522.85156,473.99867 501.29119,483.87476 485.60843,469.25925 C 476.20544,460.49616 467.98419,457.49071 462.07182,460.6549 C 448.07128,468.14777 445.50869,479.84403 455.64645,489.9818 C 468.36037,502.69572 470.46773,513.99452 462.10745,524.62291 C 458.12203,529.68954 454.23876,531.21765 442.97526,532.15172 C 426.18622,533.54399 420.48571,538.22574 420.48571,550.62203 C 420.48571,563.01833 426.18622,567.70008 442.97526,569.09237 C 454.23876,570.02641 458.12203,571.55454 462.10745,576.62116 C 469.31877,585.78885 468.4289,595.81648 459.50174,605.98394 C 449.44261,617.44067 447.75962,627.34833 454.52303,635.29345 C 460.48461,642.29661 473.23685,643.23411 478.23513,637.71099 C 495.53725,618.59198 522.85156,623.806 522.85156,648.22505 C 522.85156,660.73711 526.32195,667.95295 533.78587,670.96022 C 542.07733,674.30092 544.37723,673.9799 551.3293,668.5114 z "
       id="path2376"
       sodipodi:nodetypes="csssssssssssssssssssssssssssssssc" />
    <path
       sodipodi:type="arc"
       style="opacity:1;color:black;fill:none;fill-opacity:1;fill-rule:nonzero;stroke:none;stroke-width:1px;stroke-linecap:butt;stroke-linejoin:miter;marker:none;marker-start:none;marker-mid:none;marker-end:none;stroke-miterlimit:4;stroke-dasharray:none;stroke-dashoffset:0;stroke-opacity:1;visibility:visible;display:inline;overflow:visible"
       id="path2378"
       sodipodi:cx="108.08632"
       sodipodi:cy="70.753784"
       sodipodi:rx="36.870567"
       sodipodi:ry="41.921329"
       d="m 144.95689,70.753784 c 0,23.152511 -16.50752,41.921326 -36.87057,41.921326 -20.363053,0 -36.870568,-18.768815 -36.870568,-41.921326 0,-23.152511 16.507515,-41.921329 36.870568,-41.921329 20.36305,0 36.87057,18.768818 36.87057,41.921329 z"
       transform="matrix(2.533807,0,0,2.533807,266.937,366.921)" />
    <path
       style="color:#000000;fill:none;stroke:#000000;stroke-width:2.5;stroke-linecap:butt;stroke-linejoin:miter;stroke-miterlimit:4;stroke-opacity:1;stroke-dasharray:none;stroke-dashoffset:0;marker:none;visibility:visible;display:inline;overflow:visible"
       d="M 288.625 1.3125 A 17.428791 18.562173 0 0 0 271.21875 19.84375 L 271.21875 79.5 C 216.99682 81.651795 173.6875 126.28162 173.6875 181.03125 C 173.6875 235.78063 216.99717 280.41033 271.21875 282.5625 L 271.21875 350.25 A 17.428791 18.562173 0 0 0 288.625 368.78125 L 529.125 368.78125 A 17.428791 18.562173 0 0 0 546.5 350.25 L 546.5 19.84375 A 17.428791 18.562173 0 0 0 529.125 1.3125 L 288.625 1.3125 z "
       transform="translate(266.937,366.921)"
       id="path3265" />
    <path
       sodipodi:type="inkscape:offset"
       inkscape:radius="7.5"
       inkscape:original="M 277.4375 439.1875 L 277.4375 500.3125 L 476.4375 500.3125 L 476.4375 439.1875 L 277.4375 439.1875 z "
       style="opacity:1;color:black;fill:none;fill-opacity:1;fill-rule:nonzero;stroke:red;stroke-width:1px;stroke-linecap:butt;stroke-linejoin:miter;marker:none;marker-start:none;marker-mid:none;marker-end:none;stroke-miterlimit:4;stroke-dasharray:none;stroke-dashoffset:0;stroke-opacity:1;visibility:visible;display:inline;overflow:visible"
       id="path6835"
       d="M 277.4375,431.6875 C 273.29554,431.68791 269.93791,435.04554 269.9375,439.1875 L 269.9375,500.3125 C 269.93791,504.45446 273.29554,507.81209 277.4375,507.8125 L 476.4375,507.8125 C 480.57946,507.81209 483.93709,504.45446 483.9375,500.3125 L 483.9375,439.1875 C 483.93709,435.04554 480.57946,431.68791 476.4375,431.6875 L 277.4375,431.6875 z "
       transform="matrix(2.534104,0,0,2.408554,-412.8156,-487.2993)" />
  </g>
</svg>
