<?xml version="1.0" encoding="UTF-8" standalone="no"?>
<!-- Created with Inkscape (http://www.inkscape.org/) -->

<svg
   xmlns:dc="http://purl.org/dc/elements/1.1/"
   xmlns:cc="http://creativecommons.org/ns#"
   xmlns:rdf="http://www.w3.org/1999/02/22-rdf-syntax-ns#"
   xmlns:svg="http://www.w3.org/2000/svg"
   xmlns="http://www.w3.org/2000/svg"
   xmlns:sodipodi="http://sodipodi.sourceforge.net/DTD/sodipodi-0.dtd"
   xmlns:inkscape="http://www.inkscape.org/namespaces/inkscape"
   width="547.67059"
   height="369.94785"
   id="svg2"
   sodipodi:version="0.32"
   inkscape:version="0.48.3.1 r9886"
   version="1.0"
   sodipodi:docname="exemplouniao3.svg">
  <defs
     id="defs4" />
  <sodipodi:namedview
     id="base"
     pagecolor="#ffffff"
     bordercolor="#666666"
     borderopacity="1.0"
     gridtolerance="10000"
     guidetolerance="10"
     objecttolerance="10"
     inkscape:pageopacity="0.0"
     inkscape:pageshadow="2"
     inkscape:zoom="1.979899"
     inkscape:cx="372.84036"
     inkscape:cy="193.91873"
     inkscape:document-units="px"
     inkscape:current-layer="layer1"
     inkscape:window-width="1853"
     inkscape:window-height="1027"
     inkscape:window-x="65"
     inkscape:window-y="24"
     showgrid="false"
     inkscape:window-maximized="0" />
  <metadata
     id="metadata7">
    <rdf:RDF>
      <cc:Work
         rdf:about="">
        <dc:format>image/svg+xml</dc:format>
        <dc:type
           rdf:resource="http://purl.org/dc/dcmitype/StillImage" />
        <dc:title></dc:title>
      </cc:Work>
    </rdf:RDF>
  </metadata>
  <g
     inkscape:label="Layer 1"
     inkscape:groupmode="layer"
     id="layer1"
     transform="translate(-266.937,-366.921)">
    <rect
       style="opacity:1;color:black;fill:white;fill-opacity:1;fill-rule:nonzero;stroke:none;stroke-width:1.97504687px;stroke-linecap:butt;stroke-linejoin:miter;marker:none;marker-start:none;marker-mid:none;marker-end:none;stroke-miterlimit:4;stroke-dasharray:none;stroke-dashoffset:0;stroke-opacity:1;visibility:visible;display:inline;overflow:visible"
       id="rect4170"
       width="547.30255"
       height="367.40216"
       x="266.93695"
       y="366.92096" />
    <path
       style="fill:none;stroke:blue;stroke-width:2.53380799;stroke-opacity:1"
       d="M 272.03125 30.53125 C 256.0318 31.060112 240.61462 40.322799 233.84375 55.25 C 230.05978 74.78482 234.69881 94.87481 233.53125 114.625 C 233.43339 119.52779 231.97318 123.78377 229.625 127.46875 C 207.94603 115.75853 191.45064 95.082569 167.96875 86.09375 C 119.90949 66.66913 60.40822 90.60239 38.09375 137.125 C 25.33059 158.4495 29.35641 184.25585 29.96875 207.84375 C 38.90962 245.7236 70.79998 277.98199 109.0625 286.25 C 132.05438 289.32151 157.73094 288.18202 178.1875 276.09375 C 196.82668 267.86365 209.12552 251.2147 226.375 240.96875 C 227.59353 240.36605 228.84903 239.78889 230.09375 239.21875 C 236.62668 251.38772 235.20717 266.93024 232.625 280.3125 C 227.17049 300.29172 234.36936 324.88605 254.53125 333.5625 C 259.5064 335.64201 264.98196 336.11245 270.3125 336.34375 C 287.18986 338.04709 304.36477 330.16177 312.3125 314.8125 C 320.70898 297.4087 313.13117 277.61619 312.28125 259.40625 C 312.91191 252.18394 314.08585 245.07667 317 239.03125 C 336.56941 249.61586 351.97107 268.28839 372.4375 277.6875 C 416.21953 299.82944 474.38819 284.65378 501.46875 243.71875 C 517.67442 224.6883 518.98762 199.03029 518.15625 175.25 C 520.84215 147.61468 503.87584 122.63539 484.375 104.8125 C 447.52437 71.39147 386.73181 71.28729 349.53125 104.21875 C 340.51819 113.36081 329.78299 121.22145 318.125 127.09375 C 315.33274 122.82834 313.36346 118.00587 312.59375 112.875 C 311.67419 98.77301 316.26172 84.84777 315.3125 70.625 C 317.69374 51.47573 301.46645 34.14823 283.09375 31.59375 C 279.43593 30.747527 275.72343 30.409205 272.03125 30.53125 z "
       transform="translate(266.937,366.921)"
       id="path9498" />
    <path
       style="fill:none;stroke:fuchsia;stroke-width:2.53380799;stroke-opacity:1"
       d="M 288.625 1.3125 A 17.428791 18.562173 0 0 0 271.21875 19.84375 L 271.21875 61.84375 C 263.66973 63.099848 257.41692 70.406025 256.15625 81.21875 C 240.98233 84.11397 227.00174 90.386596 215.03125 99.21875 C 207.13844 92.909257 200.26673 90.966991 195.125 93.71875 C 181.12446 101.21162 178.58099 112.92473 188.71875 123.0625 C 189.35764 123.70139 189.94591 124.33692 190.53125 124.96875 C 182.62731 136.89488 177.19226 150.60555 174.90625 165.34375 C 159.01604 166.85643 153.5625 171.58196 153.5625 183.6875 C 153.5625 196.0438 159.21141 200.74725 175.875 202.15625 C 178.76574 215.82644 184.43581 228.46356 192.21875 239.5 C 182.49308 250.77471 180.91512 260.52947 187.59375 268.375 C 193.55533 275.37816 206.31422 276.30437 211.3125 270.78125 C 213.40958 268.46396 215.64397 266.51775 217.96875 264.90625 C 229.20131 272.59925 242.04737 278.10003 255.90625 280.78125 C 255.9092 280.9592 255.90625 281.13246 255.90625 281.3125 C 255.90625 293.82456 259.37983 301.02398 266.84375 304.03125 C 268.5199 304.70658 269.94437 305.22997 271.21875 305.59375 L 271.21875 350.25 A 17.428791 18.562173 0 0 0 288.625 368.78125 L 529.125 368.78125 A 17.428791 18.562173 0 0 0 546.5 350.25 L 546.5 19.84375 A 17.428791 18.562173 0 0 0 529.125 1.3125 L 288.625 1.3125 z "
       transform="translate(266.937,366.921)"
       id="path2376" />
    <path
       sodipodi:type="arc"
       style="opacity:1;color:black;fill:none;fill-opacity:1;fill-rule:nonzero;stroke:none;stroke-width:1px;stroke-linecap:butt;stroke-linejoin:miter;marker:none;marker-start:none;marker-mid:none;marker-end:none;stroke-miterlimit:4;stroke-dasharray:none;stroke-dashoffset:0;stroke-opacity:1;visibility:visible;display:inline;overflow:visible"
       id="path2378"
       sodipodi:cx="108.08632"
       sodipodi:cy="70.753784"
       sodipodi:rx="36.870567"
       sodipodi:ry="41.921329"
       d="m 144.95689,70.753784 c 0,23.152511 -16.50752,41.921326 -36.87057,41.921326 -20.363053,0 -36.870568,-18.768815 -36.870568,-41.921326 0,-23.152511 16.507515,-41.921329 36.870568,-41.921329 20.36305,0 36.87057,18.768818 36.87057,41.921329 z"
       transform="matrix(2.533807,0,0,2.533807,266.937,366.921)" />
    <path
       sodipodi:type="inkscape:offset"
       inkscape:radius="7.5"
       inkscape:original="M 277.4375 439.1875 L 277.4375 500.3125 L 476.4375 500.3125 L 476.4375 439.1875 L 277.4375 439.1875 z "
       style="opacity:1;color:black;fill:none;fill-opacity:1;fill-rule:nonzero;stroke:red;stroke-width:1px;stroke-linecap:butt;stroke-linejoin:miter;marker:none;marker-start:none;marker-mid:none;marker-end:none;stroke-miterlimit:4;stroke-dasharray:none;stroke-dashoffset:0;stroke-opacity:1;visibility:visible;display:inline;overflow:visible"
       id="path6835"
       d="M 277.4375,431.6875 C 273.29554,431.68791 269.93791,435.04554 269.9375,439.1875 L 269.9375,500.3125 C 269.93791,504.45446 273.29554,507.81209 277.4375,507.8125 L 476.4375,507.8125 C 480.57946,507.81209 483.93709,504.45446 483.9375,500.3125 L 483.9375,439.1875 C 483.93709,435.04554 480.57946,431.68791 476.4375,431.6875 L 277.4375,431.6875 z "
       transform="matrix(2.534104,0,0,2.408554,-412.8156,-487.2993)" />
  </g>
</svg>
