<?xml version="1.0" encoding="UTF-8" standalone="no"?>
<!-- Created with Inkscape (http://www.inkscape.org/) -->

<svg
   xmlns:dc="http://purl.org/dc/elements/1.1/"
   xmlns:cc="http://creativecommons.org/ns#"
   xmlns:rdf="http://www.w3.org/1999/02/22-rdf-syntax-ns#"
   xmlns:svg="http://www.w3.org/2000/svg"
   xmlns="http://www.w3.org/2000/svg"
   xmlns:sodipodi="http://sodipodi.sourceforge.net/DTD/sodipodi-0.dtd"
   xmlns:inkscape="http://www.inkscape.org/namespaces/inkscape"
   version="1.1"
   width="704.44"
   height="679"
   id="diagram"
   inkscape:version="0.48.3.1 r9886"
   sodipodi:docname="4waydiagram_bcd.svg">
  <sodipodi:namedview
     pagecolor="#ffffff"
     bordercolor="#666666"
     borderopacity="1"
     objecttolerance="10"
     gridtolerance="10"
     guidetolerance="10"
     inkscape:pageopacity="0"
     inkscape:pageshadow="2"
     inkscape:window-width="1855"
     inkscape:window-height="1056"
     id="namedview42"
     showgrid="false"
     inkscape:zoom="1"
     inkscape:cx="199.82098"
     inkscape:cy="339.5"
     inkscape:window-x="65"
     inkscape:window-y="24"
     inkscape:window-maximized="1"
     inkscape:current-layer="layer1"
     showguides="true"
     inkscape:guide-bbox="true" />
  <defs
     id="defs3010">
    <linearGradient
       id="linearGradient5351">
      <stop
         id="stop5353"
         style="stop-color:#000000;stop-opacity:1"
         offset="0" />
    </linearGradient>
  </defs>
  <metadata
     id="metadata3013">
    <rdf:RDF>
      <cc:Work
         rdf:about="">
        <dc:format>image/svg+xml</dc:format>
        <dc:type
           rdf:resource="http://purl.org/dc/dcmitype/StillImage" />
        <dc:title></dc:title>
      </cc:Work>
    </rdf:RDF>
  </metadata>
  <g
     transform="matrix(1.0216727,0,0,1.0216727,-16.831008,-190.59292)"
     id="layer1">
    <path
       style="fill:#ffff72;fill-opacity:0.18431373;stroke:#8f8f8f;stroke-width:2.3599999;stroke-miterlimit:4;stroke-opacity:1;stroke-dasharray:none"
       d="M 241.84375 58.90625 C 197.99082 58.997609 160.2734 72.873259 135.4375 101.59375 C 96.378213 146.76231 98.269025 218.17001 133.15625 290.40625 C 99.468344 362.05023 98.224352 432.54995 137.0625 477.15625 C 181.47275 528.16221 266.59988 531.86203 354.28125 494.59375 C 440.35211 529.38777 523.14472 524.61501 566.5625 474.40625 C 604.87747 430.09842 603.76794 360.53865 570.78125 289.71875 C 604.52755 218.03097 605.79866 147.47647 566.9375 102.84375 C 523.17211 52.578428 439.85894 48.228619 353.53125 83.78125 C 314.70202 67.307418 276.37739 58.834306 241.84375 58.90625 z "
       transform="matrix(0.97878704,0,0,0.97878704,16.473973,186.54988)"
       id="path3861" />
    <path
       style="fill:#88a8ff;fill-opacity:0.18431373;stroke:#8f8f8f;stroke-width:2.3599999;stroke-miterlimit:4;stroke-opacity:1;stroke-dasharray:none"
       d="M 562.40625 160.3125 C 497.48768 160.49347 419.27015 190.91717 349.71875 247.9375 C 232.67532 153.25302 91.895581 133.2822 30.40625 204.53125 C -33.100979 278.11848 12.026343 421.16158 131.1875 524 C 182.12341 567.9587 238.32854 597.43847 290.96875 611.0625 C 307.7494 616.80218 326.40057 619.61801 346.3125 619.5625 C 346.39551 619.5658 346.47953 619.5593 346.5625 619.5625 C 371.68919 620.53216 395.02103 617.17446 415.34375 609.28125 C 466.59393 594.86779 520.88905 565.49748 570.125 522.5 C 688.68159 418.96519 732.96853 275.68264 669.03125 202.46875 C 644.05575 173.86957 606.2591 160.19025 562.40625 160.3125 z "
       transform="matrix(0.97878704,0,0,0.97878704,16.473973,186.54988)"
       id="path3859" />
    <text
       x="347.65958"
       y="542.78772"
       id="abcd"
       xml:space="preserve"
       style="font-size:12px;font-style:normal;font-variant:normal;font-weight:500;font-stretch:normal;line-height:125%;letter-spacing:0px;word-spacing:0px;fill:#000000;fill-opacity:1;stroke:none;font-family:Rekha;-inkscape-font-specification:Rekha Medium"><tspan
         x="347.65958"
         y="542.78772"
         id="tspan4196">abcd</tspan></text>
    <text
       x="354.29788"
       y="337.46857"
       id="ab"
       xml:space="preserve"
       style="font-size:12px;font-style:normal;font-variant:normal;font-weight:500;font-stretch:normal;line-height:125%;letter-spacing:0px;word-spacing:0px;fill:#000000;fill-opacity:1;stroke:none;font-family:Rekha;-inkscape-font-specification:Rekha Medium"><tspan
         x="354.29788"
         y="337.46857"
         id="tspan4200">ab</tspan></text>
    <text
       x="353.48935"
       y="753.42603"
       id="cd"
       xml:space="preserve"
       style="font-size:12px;font-style:normal;font-variant:normal;font-weight:500;font-stretch:normal;line-height:125%;letter-spacing:0px;word-spacing:0px;fill:#000000;fill-opacity:1;stroke:none;font-family:Rekha;-inkscape-font-specification:Rekha Medium"><tspan
         x="353.48935"
         y="753.42603"
         id="tspan4216">cd</tspan></text>
  </g>
</svg>
