<?xml version="1.0" encoding="UTF-8" standalone="no"?>
<!-- Created with Inkscape (http://www.inkscape.org/) -->

<svg
   xmlns:osb="http://www.openswatchbook.org/uri/2009/osb"
   xmlns:dc="http://purl.org/dc/elements/1.1/"
   xmlns:cc="http://creativecommons.org/ns#"
   xmlns:rdf="http://www.w3.org/1999/02/22-rdf-syntax-ns#"
   xmlns:svg="http://www.w3.org/2000/svg"
   xmlns="http://www.w3.org/2000/svg"
   xmlns:sodipodi="http://sodipodi.sourceforge.net/DTD/sodipodi-0.dtd"
   xmlns:inkscape="http://www.inkscape.org/namespaces/inkscape"
   width="712"
   height="641"
   id="diagram"
   sodipodi:version="0.32"
   inkscape:version="0.48.3.1 r9886"
   version="1.0"
   sodipodi:docname="6waydiagram_ab_cef.svg">
  <defs
     id="defs4">
    <linearGradient
       id="linearGradient5216"
       osb:paint="solid">
      <stop
         style="stop-color:#00a300;stop-opacity:1;"
         offset="0"
         id="stop5218" />
    </linearGradient>
    <linearGradient
       id="linearGradient5210"
       osb:paint="solid">
      <stop
         style="stop-color:#00a300;stop-opacity:1;"
         offset="0"
         id="stop5212" />
    </linearGradient>
  </defs>
  <sodipodi:namedview
     id="base"
     pagecolor="#ffffff"
     bordercolor="#666666"
     borderopacity="1.0"
     gridtolerance="10000"
     guidetolerance="10"
     objecttolerance="10"
     inkscape:pageopacity="0.0"
     inkscape:pageshadow="2"
     inkscape:zoom="1"
     inkscape:cx="65.05226"
     inkscape:cy="248.51451"
     inkscape:document-units="px"
     inkscape:current-layer="layer1"
     inkscape:window-width="1855"
     inkscape:window-height="1056"
     inkscape:window-x="65"
     inkscape:window-y="24"
     showgrid="false"
     inkscape:window-maximized="1"
     showguides="true"
     inkscape:guide-bbox="true" />
  <metadata
     id="metadata7">
    <rdf:RDF>
      <cc:Work
         rdf:about="">
        <dc:format>image/svg+xml</dc:format>
        <dc:type
           rdf:resource="http://purl.org/dc/dcmitype/StillImage" />
        <dc:title />
      </cc:Work>
    </rdf:RDF>
  </metadata>
  <g
     inkscape:label="Layer 1"
     inkscape:groupmode="layer"
     id="layer1"
     transform="translate(-266.937,-95.869222)">
    <path
       style="color:#000000;fill:#ff6707;fill-opacity:0.1;fill-rule:nonzero;stroke:#000000;stroke-width:0.75;stroke-linecap:butt;stroke-linejoin:miter;stroke-miterlimit:4;stroke-opacity:1;stroke-dasharray:none;stroke-dashoffset:0;marker:none;visibility:visible;display:inline;overflow:visible"
       d="M 374 87.5625 A 22.550787 24.017249 0 0 0 351.46875 111.5625 L 351.46875 325.90625 L 30.6875 325.90625 A 24.593683 23.37521 0 0 0 6.09375 349.28125 L 6.09375 539.78125 A 24.593683 23.37521 0 0 0 30.6875 563.15625 L 683.1875 563.15625 A 24.593683 23.37521 0 0 0 685.9375 563 A 22.550787 24.017249 0 0 0 703.5 552.875 A 24.593683 23.37521 0 0 0 704.125 551.96875 A 24.593683 23.37521 0 0 0 707.78125 539.78125 L 707.78125 349.28125 A 24.593683 23.37521 0 0 0 707.65625 346.9375 L 707.65625 111.5625 A 22.550787 24.017249 0 0 0 685.15625 87.5625 L 374 87.5625 z "
       transform="translate(266.937,95.869222)"
       id="elipseA" />
    <path
       style="fill:#3353f1;fill-opacity:0.18431373000000001;stroke:#000008;stroke-width:0.75;stroke-miterlimit:4;stroke-opacity:1;stroke-dasharray:none"
       d="M 354.90625 125.34375 C 333.36228 125.14529 312.22266 137.31813 303.125 157.375 C 300.36499 171.62357 301.07669 186.09859 301.9375 200.59375 C 293.74199 204.35929 285.99592 208.92174 278.8125 214.21875 C 268.60271 206.05893 259.6827 203.59651 253.03125 207.15625 C 234.91621 216.85114 231.6017 231.97667 244.71875 245.09375 C 245.5556 245.9306 246.32791 246.76625 247.09375 247.59375 C 242.28747 254.84848 238.18391 262.61396 234.875 270.78125 C 221.67652 268.05766 208.37402 266.04344 195.15625 270.1875 C 161.73351 279.04405 148.95578 321.85478 163.9375 350.84375 C 176.88186 377.35679 210.46666 384.29284 236.8125 376.375 C 237.10282 376.22373 237.39675 376.08175 237.6875 375.9375 C 240.95854 382.9034 244.82634 389.51686 249.21875 395.75 C 236.64175 410.33436 234.6104 422.97588 243.25 433.125 C 250.96358 442.18625 267.47032 443.39626 273.9375 436.25 C 276.6483 433.25454 279.55756 430.74022 282.5625 428.65625 C 288.97685 433.04931 295.80508 436.877 302.96875 440.09375 C 302.54669 442.97276 302.06479 445.7974 301.53125 448.5625 C 294.47376 474.41324 303.7879 506.24246 329.875 517.46875 C 336.31226 520.15939 343.41541 520.73197 350.3125 521.03125 C 372.1498 523.23517 394.37283 513.04763 404.65625 493.1875 C 412.47844 476.97409 409.58291 459.15833 406.9375 441.65625 C 414.53807 438.51512 421.7892 434.69669 428.59375 430.25 C 435.51418 439.05049 448.66365 444.65008 460.65625 438.71875 C 467.21333 435.47572 471.82576 429.1469 472.03125 422.46875 C 472.28326 414.27892 470.84923 408.6305 466.40625 404.1875 C 464.7034 402.48466 463.15022 400.85452 461.75 399.28125 C 466.88004 392.48923 471.3735 385.19701 475.125 377.46875 C 486.9922 379.73505 498.77788 381.75819 510.09375 378.875 C 539.42199 373.94271 555.22683 342.01325 550.90625 314.40625 C 549.31483 280.2216 508.81297 258.84101 478.03125 269.25 C 474.39712 260.59601 469.87815 252.40793 464.5625 244.8125 C 465.25369 244.08068 465.97902 243.36473 466.71875 242.625 C 474.51625 234.8275 474.22169 223.13121 466.03125 213.6875 C 457.37648 203.70853 444.98787 203.55508 432.96875 212.9375 C 425.09373 207.32722 416.56299 202.59726 407.53125 198.8125 C 408.39204 191.66327 409.01365 184.4781 408.53125 177.25 C 411.6123 152.47312 390.61584 130.0552 366.84375 126.75 C 362.89977 125.83757 358.89587 125.3805 354.90625 125.34375 z "
       transform="translate(266.937,95.869222)"
       id="elipseE" />
    <path
       style="fill:#00a300;fill-opacity:0.18431373000000001;stroke:#000000;stroke-width:0.75;stroke-miterlimit:4;stroke-opacity:1;stroke-dasharray:none"
       d="m 408.60329,552.09783 c -49.50716,-10.69782 -90.76011,-52.42995 -102.32853,-101.44198 -0.7923,-30.51994 -5.99848,-63.9179 10.51554,-91.50927 28.87227,-60.19474 105.8442,-91.16622 168.02718,-66.03307 38.40706,14.70214 62.37609,53.62642 103.69728,62.6469 46.78695,14.95129 97.90758,-5.41593 131.20079,-39.18563 48.13311,-42.6094 126.80186,-42.47832 174.4822,0.76452 25.23177,23.06071 47.17638,55.38568 43.70115,91.14251 1.07569,30.76886 -0.6033,63.98288 -21.57151,88.60602 -35.03904,52.96508 -110.30888,72.5868 -166.95763,43.93775 -35.87317,-16.47457 -59.70388,-54.94883 -101.23392,-59.63145 -29.28802,-8.53293 -61.05089,-1.0652 -87.73696,12.13403 -22.31878,13.25705 -38.25287,34.81124 -62.36976,45.46001 -26.46836,15.64079 -59.67707,17.08384 -89.42583,13.10966 z"
       id="elipseD"
       inkscape:label="#path8609"
       inkscape:connector-curvature="0" />
    <path
       sodipodi:type="arc"
       style="color:#000000;fill:none;stroke:none;stroke-width:1px;marker:none;visibility:visible;display:inline;overflow:visible"
       id="path2378"
       sodipodi:cx="108.08632"
       sodipodi:cy="70.753784"
       sodipodi:rx="36.870567"
       sodipodi:ry="41.921329"
       d="m 144.95689,70.753784 c 0,23.152511 -16.50752,41.921326 -36.87057,41.921326 -20.363053,0 -36.870568,-18.768815 -36.870568,-41.921326 0,-23.152511 16.507515,-41.921329 36.870568,-41.921329 20.36305,0 36.87057,18.768818 36.87057,41.921329 z"
       transform="matrix(3.2784456,0,0,3.2784456,267.48167,181.73844)" />
    <text
       xml:space="preserve"
       style="font-size:18.11433983px;font-style:normal;font-weight:normal;line-height:125%;letter-spacing:0px;word-spacing:0px;fill:#ff6706;fill-opacity:1;stroke:none;font-family:Sans"
       x="394.97287"
       y="679.44971"
       id="labelA"
       sodipodi:linespacing="125%"><tspan
         sodipodi:role="line"
         id="tspan2996"
         x="394.97287"
         y="679.44971">Set A</tspan></text>
    <text
       xml:space="preserve"
       style="font-size:18.11433983px;font-style:normal;font-weight:normal;line-height:125%;letter-spacing:0px;word-spacing:0px;fill:#ffc113;fill-opacity:1;stroke:none;font-family:Sans"
       x="752.01154"
       y="159.47475"
       id="labelB"
       sodipodi:linespacing="125%"><tspan
         sodipodi:role="line"
         id="tspan2996-1"
         x="752.01154"
         y="159.47475">Set B</tspan></text>
    <text
       xml:space="preserve"
       style="font-size:18.11433983px;font-style:normal;font-weight:normal;line-height:125%;letter-spacing:0px;word-spacing:0px;fill:#009d00;fill-opacity:0.77173911;stroke:none;font-family:Sans"
       x="271.96078"
       y="322.73135"
       id="labelD"
       sodipodi:linespacing="125%"><tspan
         sodipodi:role="line"
         id="tspan2996-8"
         x="271.96078"
         y="322.73135">Set D</tspan></text>
    <text
       xml:space="preserve"
       style="font-size:18.11433983px;font-style:normal;font-weight:normal;line-height:125%;letter-spacing:0px;word-spacing:0px;fill:#3352f5;fill-opacity:0.84782607;stroke:none;font-family:Sans"
       x="543.28156"
       y="207.31473"
       id="labelE"
       sodipodi:linespacing="125%"><tspan
         sodipodi:role="line"
         id="tspan2996-18"
         x="543.28156"
         y="207.31473">Set E </tspan></text>
    <text
       xml:space="preserve"
       style="font-size:18.11433983px;font-style:normal;font-weight:normal;line-height:125%;letter-spacing:0px;word-spacing:0px;fill:#6c6c73;fill-opacity:0.94202899;stroke:none;font-family:Sans"
       x="476.14618"
       y="255.59599"
       id="labelC"
       sodipodi:linespacing="125%"><tspan
         sodipodi:role="line"
         id="tspan2996-3"
         x="476.14618"
         y="255.59599">Set C</tspan></text>
    <text
       xml:space="preserve"
       style="font-size:18.11433983px;font-style:normal;font-weight:normal;line-height:125%;letter-spacing:0px;word-spacing:0px;fill:#22c4e6;fill-opacity:0.8405797;stroke:none;font-family:Sans"
       x="372.39157"
       y="231.18307"
       id="labelF"
       sodipodi:linespacing="125%"><tspan
         sodipodi:role="line"
         id="tspan2996-7"
         x="372.39157"
         y="231.18307">Set F</tspan></text>
    <path
       style="fill:none;stroke:#000000;stroke-width:1.1933744;stroke-linecap:butt;stroke-linejoin:miter;stroke-miterlimit:4;stroke-opacity:0.49275363;stroke-dasharray:1.19337442, 3.58012327;stroke-dashoffset:0"
       d="M 509.21919,297.87808 412.6879,241.628"
       id="path3829"
       inkscape:connector-curvature="0" />
    <path
       style="fill:none;stroke:#000000;stroke-width:1.618;stroke-linecap:butt;stroke-linejoin:miter;stroke-miterlimit:4;stroke-opacity:0.33695655000000002;stroke-dasharray:1.618,6.472;stroke-dashoffset:0"
       d="M 554.67058,295.72439 528.9485,277.53259"
       id="path3851"
       inkscape:connector-curvature="0" />
    <text
       xml:space="preserve"
       style="font-size:10.35105038px;font-style:normal;font-weight:normal;line-height:125%;letter-spacing:0px;word-spacing:0px;fill:#000000;fill-opacity:1;stroke:none;font-family:Sans"
       x="384.32159"
       y="360.47119"
       id="d"
       sodipodi:linespacing="125%"><tspan
         sodipodi:role="line"
         id="tspan3887"
         x="384.32159"
         y="360.47119">d</tspan></text>
    <text
       xml:space="preserve"
       style="font-size:10.35105038px;font-style:normal;font-weight:normal;line-height:125%;letter-spacing:0px;word-spacing:0px;fill:#000000;fill-opacity:1;stroke:none;font-family:Sans"
       x="834.15375"
       y="588.26166"
       id="ab"
       sodipodi:linespacing="125%"><tspan
         sodipodi:role="line"
         id="tspan3935"
         x="834.15375"
         y="588.26166">ab</tspan></text>
    <text
       xml:space="preserve"
       style="font-size:10.35105038px;font-style:normal;font-weight:normal;line-height:125%;letter-spacing:0px;word-spacing:0px;fill:#000000;fill-opacity:1;stroke:none;font-family:Sans"
       x="820.97534"
       y="490.02252"
       id="abd"
       sodipodi:linespacing="125%"><tspan
         sodipodi:role="line"
         id="tspan3959"
         x="820.97534"
         y="490.02252">abd</tspan></text>
    <text
       xml:space="preserve"
       style="font-size:10.35105038px;font-style:normal;font-weight:normal;line-height:125%;letter-spacing:0px;word-spacing:0px;fill:#000000;fill-opacity:1;stroke:none;font-family:Sans"
       x="625.09613"
       y="508.59213"
       id="abcef"
       sodipodi:linespacing="125%"><tspan
         sodipodi:role="line"
         id="tspan3991"
         x="625.09613"
         y="508.59213">abcef</tspan></text>
    <text
       xml:space="preserve"
       style="font-size:10.35105038px;font-style:normal;font-weight:normal;line-height:125%;letter-spacing:0px;word-spacing:0px;fill:#000000;fill-opacity:1;stroke:none;font-family:Sans"
       x="654.69019"
       y="448.09122"
       id="abcdef"
       sodipodi:linespacing="125%"><tspan
         sodipodi:role="line"
         id="tspan4051"
         x="654.69019"
         y="448.09122">abcdef</tspan></text>
    <text
       xml:space="preserve"
       style="font-size:10.35105038px;font-style:normal;font-weight:normal;line-height:125%;letter-spacing:0px;word-spacing:0px;fill:#000000;fill-opacity:1;stroke:none;font-family:Sans"
       x="556.42169"
       y="404.55597"
       id="cdef"
       sodipodi:linespacing="125%"><tspan
         sodipodi:role="line"
         id="tspan4059"
         x="556.42169"
         y="404.55597">cdef</tspan></text>
    <text
       xml:space="preserve"
       style="font-size:10.35105038px;font-style:normal;font-weight:normal;line-height:125%;letter-spacing:0px;word-spacing:0px;fill:#000000;fill-opacity:1;stroke:none;font-family:Sans"
       x="579.57062"
       y="337.87167"
       id="cef"
       sodipodi:linespacing="125%"><tspan
         sodipodi:role="line"
         id="tspan4099"
         x="579.57062"
         y="337.87167">cef</tspan></text>
    <text
       xml:space="preserve"
       style="font-size:18.11433983px;font-style:normal;font-weight:normal;line-height:125%;letter-spacing:0px;word-spacing:0px;fill:#009d00;fill-opacity:0.77173911;stroke:none;font-family:Sans"
       x="270.14035"
       y="338.46307"
       id="totalD"
       sodipodi:linespacing="125%"
       inkscape:label="#labelD-0"><tspan
         sodipodi:role="line"
         id="tspan2996-8-1"
         x="270.14035"
         y="338.46307">(total)</tspan></text>
    <text
       xml:space="preserve"
       style="font-size:18.11433983px;font-style:normal;font-weight:normal;line-height:125%;letter-spacing:0px;word-spacing:0px;fill:#22c4e6;fill-opacity:0.8405797;stroke:none;font-family:Sans"
       x="370.89606"
       y="246.46309"
       id="totalF"
       sodipodi:linespacing="125%"
       inkscape:label="#labelF-1"><tspan
         sodipodi:role="line"
         id="tspan2996-7-5"
         x="370.89606"
         y="246.46309">(total)</tspan></text>
    <text
       xml:space="preserve"
       style="font-size:18.11433983px;font-style:normal;font-weight:normal;line-height:125%;letter-spacing:0px;word-spacing:0px;fill:#6c6c73;fill-opacity:0.94202899;stroke:none;font-family:Sans"
       x="473.74622"
       y="271.4631"
       id="totalC"
       sodipodi:linespacing="125%"
       inkscape:label="#labelC-9"><tspan
         sodipodi:role="line"
         id="tspan2996-3-3"
         x="473.74622"
         y="271.4631">(total)</tspan></text>
    <text
       xml:space="preserve"
       style="font-size:18.11433983px;font-style:normal;font-weight:normal;line-height:125%;letter-spacing:0px;word-spacing:0px;fill:#3352f5;fill-opacity:0.84782607;stroke:none;font-family:Sans"
       x="541.84796"
       y="222.46309"
       id="totalE"
       sodipodi:linespacing="125%"
       inkscape:label="#labelE-6"><tspan
         sodipodi:role="line"
         id="tspan2996-18-0"
         x="541.84796"
         y="222.46309">(total)</tspan></text>
    <text
       xml:space="preserve"
       style="font-size:18.11433983px;font-style:normal;font-weight:normal;line-height:125%;letter-spacing:0px;word-spacing:0px;fill:#ffc113;fill-opacity:1;stroke:none;font-family:Sans"
       x="751.00714"
       y="175.46309"
       id="totalB"
       sodipodi:linespacing="125%"
       inkscape:label="#labelB-6"><tspan
         sodipodi:role="line"
         id="tspan2996-1-9"
         x="751.00714"
         y="175.46309">(total)</tspan></text>
    <text
       xml:space="preserve"
       style="font-size:18.11433983px;font-style:normal;font-weight:normal;line-height:125%;letter-spacing:0px;word-spacing:0px;fill:#ff6706;fill-opacity:1;stroke:none;font-family:Sans"
       x="392.45877"
       y="695.46307"
       id="totalA"
       sodipodi:linespacing="125%"
       inkscape:label="#labelA-4"><tspan
         sodipodi:role="line"
         id="tspan2996-9"
         x="392.45877"
         y="695.46307">(total)</tspan></text>
  </g>
</svg>
