<?xml version="1.0" encoding="UTF-8" standalone="no"?>
<!-- Created with Inkscape (http://www.inkscape.org/) -->

<svg
   xmlns:osb="http://www.openswatchbook.org/uri/2009/osb"
   xmlns:dc="http://purl.org/dc/elements/1.1/"
   xmlns:cc="http://creativecommons.org/ns#"
   xmlns:rdf="http://www.w3.org/1999/02/22-rdf-syntax-ns#"
   xmlns:svg="http://www.w3.org/2000/svg"
   xmlns="http://www.w3.org/2000/svg"
   xmlns:sodipodi="http://sodipodi.sourceforge.net/DTD/sodipodi-0.dtd"
   xmlns:inkscape="http://www.inkscape.org/namespaces/inkscape"
   width="712"
   height="641"
   id="diagram"
   sodipodi:version="0.32"
   inkscape:version="0.48.3.1 r9886"
   version="1.0"
   sodipodi:docname="6waydiagram_abd_cf.svg">
  <defs
     id="defs4">
    <linearGradient
       id="linearGradient5216"
       osb:paint="solid">
      <stop
         style="stop-color:#00a300;stop-opacity:1;"
         offset="0"
         id="stop5218" />
    </linearGradient>
    <linearGradient
       id="linearGradient5210"
       osb:paint="solid">
      <stop
         style="stop-color:#00a300;stop-opacity:1;"
         offset="0"
         id="stop5212" />
    </linearGradient>
  </defs>
  <sodipodi:namedview
     id="base"
     pagecolor="#ffffff"
     bordercolor="#666666"
     borderopacity="1.0"
     gridtolerance="10000"
     guidetolerance="10"
     objecttolerance="10"
     inkscape:pageopacity="0.0"
     inkscape:pageshadow="2"
     inkscape:zoom="1"
     inkscape:cx="65.05226"
     inkscape:cy="248.51451"
     inkscape:document-units="px"
     inkscape:current-layer="layer1"
     inkscape:window-width="1855"
     inkscape:window-height="1056"
     inkscape:window-x="65"
     inkscape:window-y="24"
     showgrid="false"
     inkscape:window-maximized="1"
     showguides="true"
     inkscape:guide-bbox="true" />
  <metadata
     id="metadata7">
    <rdf:RDF>
      <cc:Work
         rdf:about="">
        <dc:format>image/svg+xml</dc:format>
        <dc:type
           rdf:resource="http://purl.org/dc/dcmitype/StillImage" />
        <dc:title />
      </cc:Work>
    </rdf:RDF>
  </metadata>
  <g
     inkscape:label="Layer 1"
     inkscape:groupmode="layer"
     id="layer1"
     transform="translate(-266.937,-95.869222)">
    <path
       style="color:#000000;fill:#ff6707;fill-opacity:0.1;fill-rule:nonzero;stroke:#000000;stroke-width:0.75;stroke-linecap:butt;stroke-linejoin:miter;stroke-miterlimit:4;stroke-opacity:1;stroke-dasharray:none;stroke-dashoffset:0;marker:none;visibility:visible;display:inline;overflow:visible"
       d="M 374 87.5625 A 22.550787 24.017249 0 0 0 351.46875 111.5625 L 351.46875 264.84375 C 341.44797 264.62072 331.406 263.05185 321.5625 259.90625 C 280.24131 250.88577 256.28206 211.95214 217.875 197.25 C 155.69202 172.11685 78.71602 203.08651 49.84375 263.28125 C 38.435826 282.34143 37.386837 304.1671 38.09375 325.90625 L 30.6875 325.90625 A 24.593683 23.37521 0 0 0 6.09375 349.28125 L 6.09375 539.78125 A 24.593683 23.37521 0 0 0 30.6875 563.15625 L 683.1875 563.15625 A 24.593683 23.37521 0 0 0 685.9375 563 A 22.550787 24.017249 0 0 0 703.5 552.875 A 24.593683 23.37521 0 0 0 704.125 551.96875 A 24.593683 23.37521 0 0 0 707.78125 539.78125 L 707.78125 349.28125 A 24.593683 23.37521 0 0 0 707.65625 346.9375 L 707.65625 111.5625 A 22.550787 24.017249 0 0 0 685.15625 87.5625 L 374 87.5625 z "
       transform="translate(266.937,95.869222)"
       id="elipseA" />
    <path
       style="fill:#3353f1;fill-opacity:0.18431373000000001;stroke:#000008;stroke-width:0.75;stroke-miterlimit:4;stroke-opacity:1;stroke-dasharray:none"
       d="m 596.80293,613.34051 c -26.0871,-11.22629 -35.40094,-43.04438 -28.34345,-68.89512 3.8079,-19.73475 5.69263,-43.11563 -7.42333,-59.50708 -15.85774,-16.72909 -37.11281,-23.20107 -57.28683,-12.68964 -26.34584,7.91784 -59.92022,0.97441 -72.86458,-25.53863 -14.98172,-28.98897 -2.22542,-71.79184 31.19732,-80.64839 21.2475,-6.66156 42.71511,2.59046 63.61503,5.12114 19.40613,-5.78899 43.46738,-17.75763 43.93388,-41.12915 1.51068,-25.5544 -4.46431,-51.53941 0.4317,-76.81514 10.78241,-23.77111 38.47057,-36.44475 63.71205,-30.60522 23.77209,3.3052 44.77728,25.71304 41.69623,50.48992 1.22818,18.40257 -4.70038,36.43473 -3.51058,54.68103 4.63973,30.92853 42.15815,52.58634 70.82044,38.12406 31.0123,-12.21941 73.43989,9.33868 75.06926,44.33842 4.32058,27.607 -11.49113,59.53753 -40.81937,64.46982 -26.00099,6.62483 -54.47563,-12.54474 -80.74461,-1.44056 -19.00488,8.03361 -23.14178,25.73873 -24.74195,44.06384 1.0997,23.5615 10.91076,49.17791 0.0467,71.69636 -10.28342,19.86013 -32.51767,30.05821 -54.35497,27.85429 -6.89709,-0.29928 -13.99569,-0.87931 -20.43295,-3.56995 z"
       id="elipseE"
       sodipodi:nodetypes="cccccccccccccccscccc"
       inkscape:label="#path9498"
       inkscape:connector-curvature="0" />
    <path
       style="fill:#20e4e4;fill-opacity:0.18431373000000001;stroke:#000005;stroke-width:0.75;stroke-miterlimit:4;stroke-opacity:1;stroke-dasharray:none"
       d="M 353.8125 165.625 C 343.00663 166.00878 333.7229 175.85106 331.96875 190.96875 C 312.35976 194.71305 294.28555 202.80902 278.8125 214.21875 C 268.60271 206.05893 259.6827 203.59651 253.03125 207.15625 C 234.91621 216.85114 231.6017 231.97667 244.71875 245.09375 C 245.5556 245.9306 246.32791 246.76625 247.09375 247.59375 C 236.86921 263.02697 229.79989 280.74149 226.84375 299.8125 C 206.28622 301.77006 199.21875 307.90019 199.21875 323.5625 C 199.21875 339.56135 206.56029 345.61912 228.15625 347.4375 C 231.89427 365.1121 239.16096 381.4773 249.21875 395.75 C 236.64175 410.33436 234.6104 422.97588 243.25 433.125 C 250.96358 442.18625 267.47032 443.39626 273.9375 436.25 C 276.6483 433.25454 279.55756 430.74022 282.5625 428.65625 C 297.09074 438.60633 313.73097 445.71891 331.65625 449.1875 C 331.65968 449.40565 331.65625 449.62317 331.65625 449.84375 C 331.65625 466.03287 336.15508 475.35896 345.8125 479.25 C 356.54067 483.57248 359.50485 483.16934 368.5 476.09375 C 375.09549 470.90572 377.03898 465.91789 378.28125 450.9375 C 378.31517 450.52852 378.37141 450.20644 378.40625 449.8125 C 396.68045 446.78463 413.68989 439.98949 428.59375 430.25 C 435.51418 439.05049 448.66365 444.65008 460.65625 438.71875 C 467.21333 435.47572 471.82576 429.1469 472.03125 422.46875 C 472.28326 414.27892 470.84923 408.6305 466.40625 404.1875 C 464.7034 402.48466 463.15022 400.85452 461.75 399.28125 C 472.73836 384.73298 480.78081 367.83684 484.96875 349.46875 C 493.56933 349.06807 498.52414 346.88215 503.9375 341.46875 C 520.03844 325.36786 509.78355 302.65792 486.625 299.375 C 483.44612 279.31849 475.72783 260.76641 464.5625 244.8125 C 465.25369 244.08068 465.97902 243.36473 466.71875 242.625 C 474.51625 234.8275 474.22169 223.13121 466.03125 213.6875 C 457.37648 203.70853 444.98787 203.55508 432.96875 212.9375 C 416.87116 201.46933 398.07047 193.57355 377.71875 190.3125 C 376.41095 179.66559 374.16238 175.46985 368.28125 170.84375 C 363.50833 167.08937 358.51153 165.45811 353.8125 165.625 z "
       transform="translate(266.937,95.869222)"
       id="elipseF" />
    <path
       sodipodi:type="arc"
       style="color:#000000;fill:none;stroke:none;stroke-width:1px;marker:none;visibility:visible;display:inline;overflow:visible"
       id="path2378"
       sodipodi:cx="108.08632"
       sodipodi:cy="70.753784"
       sodipodi:rx="36.870567"
       sodipodi:ry="41.921329"
       d="m 144.95689,70.753784 c 0,23.152511 -16.50752,41.921326 -36.87057,41.921326 -20.363053,0 -36.870568,-18.768815 -36.870568,-41.921326 0,-23.152511 16.507515,-41.921329 36.870568,-41.921329 20.36305,0 36.87057,18.768818 36.87057,41.921329 z"
       transform="matrix(3.2784456,0,0,3.2784456,267.48167,181.73844)" />
    <text
       xml:space="preserve"
       style="font-size:18.11433983px;font-style:normal;font-weight:normal;line-height:125%;letter-spacing:0px;word-spacing:0px;fill:#ff6706;fill-opacity:1;stroke:none;font-family:Sans"
       x="394.97287"
       y="679.44971"
       id="labelA"
       sodipodi:linespacing="125%"><tspan
         sodipodi:role="line"
         id="tspan2996"
         x="394.97287"
         y="679.44971">Set A</tspan></text>
    <text
       xml:space="preserve"
       style="font-size:18.11433983px;font-style:normal;font-weight:normal;line-height:125%;letter-spacing:0px;word-spacing:0px;fill:#ffc113;fill-opacity:1;stroke:none;font-family:Sans"
       x="752.01154"
       y="159.47475"
       id="labelB"
       sodipodi:linespacing="125%"><tspan
         sodipodi:role="line"
         id="tspan2996-1"
         x="752.01154"
         y="159.47475">Set B</tspan></text>
    <text
       xml:space="preserve"
       style="font-size:18.11433983px;font-style:normal;font-weight:normal;line-height:125%;letter-spacing:0px;word-spacing:0px;fill:#009d00;fill-opacity:0.77173911;stroke:none;font-family:Sans"
       x="271.96078"
       y="322.73135"
       id="labelD"
       sodipodi:linespacing="125%"><tspan
         sodipodi:role="line"
         id="tspan2996-8"
         x="271.96078"
         y="322.73135">Set D</tspan></text>
    <text
       xml:space="preserve"
       style="font-size:18.11433983px;font-style:normal;font-weight:normal;line-height:125%;letter-spacing:0px;word-spacing:0px;fill:#3352f5;fill-opacity:0.84782607;stroke:none;font-family:Sans"
       x="543.28156"
       y="207.31473"
       id="labelE"
       sodipodi:linespacing="125%"><tspan
         sodipodi:role="line"
         id="tspan2996-18"
         x="543.28156"
         y="207.31473">Set E </tspan></text>
    <text
       xml:space="preserve"
       style="font-size:18.11433983px;font-style:normal;font-weight:normal;line-height:125%;letter-spacing:0px;word-spacing:0px;fill:#6c6c73;fill-opacity:0.94202899;stroke:none;font-family:Sans"
       x="476.14618"
       y="255.59599"
       id="labelC"
       sodipodi:linespacing="125%"><tspan
         sodipodi:role="line"
         id="tspan2996-3"
         x="476.14618"
         y="255.59599">Set C</tspan></text>
    <text
       xml:space="preserve"
       style="font-size:18.11433983px;font-style:normal;font-weight:normal;line-height:125%;letter-spacing:0px;word-spacing:0px;fill:#22c4e6;fill-opacity:0.8405797;stroke:none;font-family:Sans"
       x="372.39157"
       y="231.18307"
       id="labelF"
       sodipodi:linespacing="125%"><tspan
         sodipodi:role="line"
         id="tspan2996-7"
         x="372.39157"
         y="231.18307">Set F</tspan></text>
    <path
       style="fill:none;stroke:#000000;stroke-width:1.1933744;stroke-linecap:butt;stroke-linejoin:miter;stroke-miterlimit:4;stroke-opacity:0.49275363;stroke-dasharray:1.19337442, 3.58012327;stroke-dashoffset:0"
       d="M 509.21919,297.87808 412.6879,241.628"
       id="path3829"
       inkscape:connector-curvature="0" />
    <path
       style="fill:none;stroke:#000000;stroke-width:1.618;stroke-linecap:butt;stroke-linejoin:miter;stroke-miterlimit:4;stroke-opacity:0.33695655000000002;stroke-dasharray:1.618,6.472;stroke-dashoffset:0"
       d="M 554.67058,295.72439 528.9485,277.53259"
       id="path3851"
       inkscape:connector-curvature="0" />
    <text
       xml:space="preserve"
       style="font-size:10.35105038px;font-style:normal;font-weight:normal;line-height:125%;letter-spacing:0px;word-spacing:0px;fill:#000000;fill-opacity:1;stroke:none;font-family:Sans"
       x="583.33521"
       y="258.9137"
       id="e"
       sodipodi:linespacing="125%"><tspan
         sodipodi:role="line"
         id="tspan3891"
         x="583.33521"
         y="258.9137">e</tspan></text>
    <text
       xml:space="preserve"
       style="font-size:10.35105038px;font-style:normal;font-weight:normal;line-height:125%;letter-spacing:0px;word-spacing:0px;fill:#000000;fill-opacity:1;stroke:none;font-family:Sans"
       x="541.08777"
       y="331.36356"
       id="cf"
       sodipodi:linespacing="125%"><tspan
         sodipodi:role="line"
         x="541.08777"
         y="331.36356"
         id="tspan3909">cf</tspan></text>
    <text
       xml:space="preserve"
       style="font-size:10.35105038px;font-style:normal;font-weight:normal;line-height:125%;letter-spacing:0px;word-spacing:0px;fill:#000000;fill-opacity:1;stroke:none;font-family:Sans"
       x="820.97534"
       y="490.02252"
       id="abd"
       sodipodi:linespacing="125%"><tspan
         sodipodi:role="line"
         id="tspan3959"
         x="820.97534"
         y="490.02252">abd</tspan></text>
    <text
       xml:space="preserve"
       style="font-size:10.35105038px;font-style:normal;font-weight:normal;line-height:125%;letter-spacing:0px;word-spacing:0px;fill:#000000;fill-opacity:1;stroke:none;font-family:Sans"
       x="760.47437"
       y="461.86865"
       id="abde"
       sodipodi:linespacing="125%"><tspan
         sodipodi:role="line"
         id="tspan3999"
         x="760.47437"
         y="461.86865">abde</tspan></text>
    <text
       xml:space="preserve"
       style="font-size:10.35105038px;font-style:normal;font-weight:normal;line-height:125%;letter-spacing:0px;word-spacing:0px;fill:#000000;fill-opacity:1;stroke:none;font-family:Sans"
       x="682.99799"
       y="491.62646"
       id="abcdf"
       sodipodi:linespacing="125%"><tspan
         sodipodi:role="line"
         id="tspan4043"
         x="682.99799"
         y="491.62646">abcdf</tspan></text>
    <text
       xml:space="preserve"
       style="font-size:10.35105038px;font-style:normal;font-weight:normal;line-height:125%;letter-spacing:0px;word-spacing:0px;fill:#000000;fill-opacity:1;stroke:none;font-family:Sans"
       x="654.69019"
       y="448.09122"
       id="abcdef"
       sodipodi:linespacing="125%"><tspan
         sodipodi:role="line"
         id="tspan4051"
         x="654.69019"
         y="448.09122">abcdef</tspan></text>
    <text
       xml:space="preserve"
       style="font-size:10.35105038px;font-style:normal;font-weight:normal;line-height:125%;letter-spacing:0px;word-spacing:0px;fill:#000000;fill-opacity:1;stroke:none;font-family:Sans"
       x="579.57062"
       y="337.87167"
       id="cef"
       sodipodi:linespacing="125%"><tspan
         sodipodi:role="line"
         id="tspan4099"
         x="579.57062"
         y="337.87167">cef</tspan></text>
    <text
       xml:space="preserve"
       style="font-size:18.11433983px;font-style:normal;font-weight:normal;line-height:125%;letter-spacing:0px;word-spacing:0px;fill:#009d00;fill-opacity:0.77173911;stroke:none;font-family:Sans"
       x="270.14035"
       y="338.46307"
       id="totalD"
       sodipodi:linespacing="125%"
       inkscape:label="#labelD-0"><tspan
         sodipodi:role="line"
         id="tspan2996-8-1"
         x="270.14035"
         y="338.46307">(total)</tspan></text>
    <text
       xml:space="preserve"
       style="font-size:18.11433983px;font-style:normal;font-weight:normal;line-height:125%;letter-spacing:0px;word-spacing:0px;fill:#22c4e6;fill-opacity:0.8405797;stroke:none;font-family:Sans"
       x="370.89606"
       y="246.46309"
       id="totalF"
       sodipodi:linespacing="125%"
       inkscape:label="#labelF-1"><tspan
         sodipodi:role="line"
         id="tspan2996-7-5"
         x="370.89606"
         y="246.46309">(total)</tspan></text>
    <text
       xml:space="preserve"
       style="font-size:18.11433983px;font-style:normal;font-weight:normal;line-height:125%;letter-spacing:0px;word-spacing:0px;fill:#6c6c73;fill-opacity:0.94202899;stroke:none;font-family:Sans"
       x="473.74622"
       y="271.4631"
       id="totalC"
       sodipodi:linespacing="125%"
       inkscape:label="#labelC-9"><tspan
         sodipodi:role="line"
         id="tspan2996-3-3"
         x="473.74622"
         y="271.4631">(total)</tspan></text>
    <text
       xml:space="preserve"
       style="font-size:18.11433983px;font-style:normal;font-weight:normal;line-height:125%;letter-spacing:0px;word-spacing:0px;fill:#3352f5;fill-opacity:0.84782607;stroke:none;font-family:Sans"
       x="541.84796"
       y="222.46309"
       id="totalE"
       sodipodi:linespacing="125%"
       inkscape:label="#labelE-6"><tspan
         sodipodi:role="line"
         id="tspan2996-18-0"
         x="541.84796"
         y="222.46309">(total)</tspan></text>
    <text
       xml:space="preserve"
       style="font-size:18.11433983px;font-style:normal;font-weight:normal;line-height:125%;letter-spacing:0px;word-spacing:0px;fill:#ffc113;fill-opacity:1;stroke:none;font-family:Sans"
       x="751.00714"
       y="175.46309"
       id="totalB"
       sodipodi:linespacing="125%"
       inkscape:label="#labelB-6"><tspan
         sodipodi:role="line"
         id="tspan2996-1-9"
         x="751.00714"
         y="175.46309">(total)</tspan></text>
    <text
       xml:space="preserve"
       style="font-size:18.11433983px;font-style:normal;font-weight:normal;line-height:125%;letter-spacing:0px;word-spacing:0px;fill:#ff6706;fill-opacity:1;stroke:none;font-family:Sans"
       x="392.45877"
       y="695.46307"
       id="totalA"
       sodipodi:linespacing="125%"
       inkscape:label="#labelA-4"><tspan
         sodipodi:role="line"
         id="tspan2996-9"
         x="392.45877"
         y="695.46307">(total)</tspan></text>
  </g>
</svg>
