<?xml version="1.0" encoding="UTF-8" standalone="no"?>
<!-- Created with Inkscape (http://www.inkscape.org/) -->

<svg
   xmlns:osb="http://www.openswatchbook.org/uri/2009/osb"
   xmlns:dc="http://purl.org/dc/elements/1.1/"
   xmlns:cc="http://creativecommons.org/ns#"
   xmlns:rdf="http://www.w3.org/1999/02/22-rdf-syntax-ns#"
   xmlns:svg="http://www.w3.org/2000/svg"
   xmlns="http://www.w3.org/2000/svg"
   xmlns:sodipodi="http://sodipodi.sourceforge.net/DTD/sodipodi-0.dtd"
   xmlns:inkscape="http://www.inkscape.org/namespaces/inkscape"
   width="712"
   height="641"
   id="diagram"
   sodipodi:version="0.32"
   inkscape:version="0.48.4 r9939"
   version="1.0"
   sodipodi:docname="6waydiagram_ad_ce.svg">
  <defs
     id="defs4">
    <linearGradient
       id="linearGradient5216"
       osb:paint="solid">
      <stop
         style="stop-color:#00a300;stop-opacity:1;"
         offset="0"
         id="stop5218" />
    </linearGradient>
    <linearGradient
       id="linearGradient5210"
       osb:paint="solid">
      <stop
         style="stop-color:#00a300;stop-opacity:1;"
         offset="0"
         id="stop5212" />
    </linearGradient>
  </defs>
  <sodipodi:namedview
     id="base"
     pagecolor="#ffffff"
     bordercolor="#666666"
     borderopacity="1.0"
     gridtolerance="10000"
     guidetolerance="10"
     objecttolerance="10"
     inkscape:pageopacity="0.0"
     inkscape:pageshadow="2"
     inkscape:zoom="1.4142136"
     inkscape:cx="289.98875"
     inkscape:cy="359.0199"
     inkscape:document-units="px"
     inkscape:current-layer="layer1"
     inkscape:window-width="1861"
     inkscape:window-height="1056"
     inkscape:window-x="59"
     inkscape:window-y="24"
     showgrid="false"
     inkscape:window-maximized="1"
     showguides="true"
     inkscape:guide-bbox="true" />
  <metadata
     id="metadata7">
    <rdf:RDF>
      <cc:Work
         rdf:about="">
        <dc:format>image/svg+xml</dc:format>
        <dc:type
           rdf:resource="http://purl.org/dc/dcmitype/StillImage" />
        <dc:title />
      </cc:Work>
    </rdf:RDF>
  </metadata>
  <g
     inkscape:label="Layer 1"
     inkscape:groupmode="layer"
     id="layer1"
     transform="translate(-266.937,-95.869222)">
    <path
       style="color:#000000;fill:#ffa76d;fill-opacity:0.18000004;fill-rule:nonzero;stroke:#000000;stroke-width:0.75;stroke-linecap:butt;stroke-linejoin:miter;stroke-miterlimit:4;stroke-opacity:1;stroke-dasharray:none;stroke-dashoffset:0;marker:none;visibility:visible;display:inline;overflow:visible"
       d="M 172.53125 188.46875 C 122.25976 188.23084 71.949082 217.19465 49.84375 263.28125 C 38.435826 282.34143 37.386837 304.1671 38.09375 325.90625 L 30.6875 325.90625 A 24.593683 23.37521 0 0 0 6.09375 349.28125 L 6.09375 539.78125 A 24.593683 23.37521 0 0 0 30.6875 563.15625 L 683.1875 563.15625 A 24.593683 23.37521 0 0 0 707.78125 539.78125 L 707.78125 349.28125 A 24.593683 23.37521 0 0 0 683.1875 325.90625 L 671.1875 325.90625 C 671.19426 321.44753 671.12227 317.01619 670.96875 312.625 C 674.44398 276.86817 652.48177 244.52946 627.25 221.46875 C 579.56966 178.22591 500.91436 178.10935 452.78125 220.71875 C 419.48804 254.48845 368.34945 274.85754 321.5625 259.90625 C 280.24131 250.88577 256.28206 211.95214 217.875 197.25 C 203.30086 191.35942 187.92048 188.54158 172.53125 188.46875 z "
       transform="translate(266.937,95.869222)"
       id="elipseA" />
    <path
       sodipodi:type="inkscape:offset"
       inkscape:radius="7.323606"
       inkscape:original="M 372.46875 373 L 372.46875 503.375 L 473.53125 503.375 L 473.53125 373 L 372.46875 373 z "
       style="color:#000000;fill:#ffff8e;fill-opacity:0.18000004;fill-rule:nonzero;stroke:#000000;stroke-width:0.23604085999999999;stroke-linecap:butt;stroke-linejoin:miter;stroke-miterlimit:4;stroke-opacity:1;stroke-dasharray:none;stroke-dashoffset:0;marker:none;visibility:visible;display:inline;overflow:visible"
       id="elipseB"
       d="M 372.46875,365.6875 A 7.3243384,7.3243384 0 0 0 365.15625,373 l 0,130.375 a 7.3243384,7.3243384 0 0 0 7.3125,7.3125 l 101.0625,0 a 7.3243384,7.3243384 0 0 0 7.3125,-7.3125 l 0,-130.375 a 7.3243384,7.3243384 0 0 0 -7.3125,-7.3125 l -101.0625,0 z"
       transform="matrix(3.0788838,0,0,3.2791015,-505.85489,-1015.6844)"
       inkscape:label="#path6829" />
    <path
       style="fill:#7f93f6;fill-opacity:0.18431373000000001;stroke:#000000;stroke-width:0.75000000000000000;stroke-miterlimit:4;stroke-opacity:1;stroke-dasharray:none"
       d="M 354.90625 125.34375 C 333.36228 125.14529 312.22266 137.31813 303.125 157.375 C 300.36499 171.62357 301.07669 186.09859 301.9375 200.59375 C 271.58168 214.54115 247.4663 239.70251 234.875 270.78125 C 221.67652 268.05766 208.37402 266.04344 195.15625 270.1875 C 161.73351 279.04405 148.95578 321.85478 163.9375 350.84375 C 176.88186 377.35679 210.46666 384.29284 236.8125 376.375 C 237.10282 376.22373 237.39675 376.08175 237.6875 375.9375 C 251.03854 404.36946 274.27747 427.21033 302.96875 440.09375 C 302.54669 442.97276 302.06479 445.7974 301.53125 448.5625 C 294.47376 474.41324 303.7879 506.24246 329.875 517.46875 C 336.31226 520.15939 343.41541 520.73197 350.3125 521.03125 C 372.1498 523.23517 394.37283 513.04763 404.65625 493.1875 C 412.47844 476.97409 409.58291 459.15833 406.9375 441.65625 C 436.76952 429.3274 461.09495 406.3713 475.125 377.46875 C 486.9922 379.73505 498.77788 381.75819 510.09375 378.875 C 539.42199 373.94271 555.22683 342.01325 550.90625 314.40625 C 549.31483 280.2216 508.81297 258.84101 478.03125 269.25 C 464.703 237.51131 439.282 212.1177 407.53125 198.8125 C 408.39204 191.66327 409.01365 184.4781 408.53125 177.25 C 411.6123 152.47312 390.61584 130.0552 366.84375 126.75 C 362.89977 125.83757 358.89587 125.3805 354.90625 125.34375 z "
       transform="translate(266.937,95.869222)"
       id="elipseE" />
    <path
       style="fill:#2fe6e6;fill-opacity:0.22463769000000000;stroke:#000000;stroke-width:0.75000000000000000;stroke-miterlimit:4;stroke-opacity:1;stroke-dasharray:none"
       d="m 635.45155,571.96063 c 6.59549,-5.18803 8.53199,-10.17101 9.77426,-25.1514 1.27239,-15.34349 3.12802,-19.94054 10.38482,-25.72687 11.4196,-9.10567 28.80763,-9.41627 39.70829,4.7934 6.86455,8.94837 20.15728,14.71236 32.26664,8.72329 6.55708,-3.24303 11.18205,-9.58528 11.38754,-16.26343 0.25201,-8.18983 -1.19366,-13.82948 -5.63664,-18.27248 -13.37276,-13.37274 -17.19606,-22.24487 -14.88797,-34.54818 2.79213,-14.88331 12.08834,-20.11453 30.20404,-20.11453 10.67614,0 16.15781,-1.98522 22.21964,-8.0471 17.39063,-17.39058 4.05896,-42.51591 -23.09812,-42.51591 -11.60888,0 -16.89145,-1.84037 -23.09813,-8.0471 -13.00805,-13.00803 -9.97131,-29.37005 8.96566,-48.30703 7.7975,-7.7975 7.53109,-19.48656 -0.65935,-28.93027 -9.62577,-11.09854 -23.88497,-10.03127 -37.09957,2.77682 -7.98718,7.74147 -13.70586,10.38175 -22.48613,10.38175 -18.41587,0 -26.34352,-8.63544 -28.17222,-30.68765 -1.25402,-15.1215 -3.15329,-19.92612 -10.00835,-25.31831 -16.9704,-13.34892 -36.61123,0.26291 -36.61123,25.37296 0,28.20565 -27.89655,40.98415 -48.18819,22.07341 -12.16635,-11.3384 -22.80367,-15.2271 -30.45357,-11.13301 -18.11504,9.69489 -21.43072,24.82845 -8.31367,37.94553 16.45031,16.4503 19.17698,31.0696 8.35977,44.82149 -5.15666,6.55561 -10.18116,8.5328 -24.75479,9.74138 -21.72302,1.80143 -29.0988,7.85906 -29.0988,23.89839 0,16.03934 7.37578,22.09697 29.0988,23.89842 14.57363,1.20854 19.59813,3.18576 24.75479,9.74137 9.33059,11.8619 8.17921,24.83647 -3.37148,37.99195 -13.01533,14.82365 -15.19292,27.64298 -6.44186,37.92303 7.71358,9.06125 24.21346,10.27427 30.68064,3.12801 22.38689,-24.73774 57.72836,-17.99141 57.72836,13.60395 0,16.18912 4.49028,25.52556 14.1477,29.4166 10.72817,4.32248 13.70397,3.90711 22.69912,-3.16848 z"
       id="elipseF"
       sodipodi:nodetypes="csssssssssssssssssssssssssssssssc"
       inkscape:label="#path2376"
       inkscape:connector-curvature="0" />
    <text
       xml:space="preserve"
       style="font-size:18.11433983px;font-style:normal;font-weight:normal;line-height:125%;letter-spacing:0px;word-spacing:0px;fill:#ff6706;fill-opacity:1;stroke:none;font-family:Sans"
       x="394.97287"
       y="679.44971"
       id="labelA"
       sodipodi:linespacing="125%"><tspan
         sodipodi:role="line"
         id="tspan2996"
         x="394.97287"
         y="679.44971">Set A</tspan></text>
    <text
       xml:space="preserve"
       style="font-size:18.11433983px;font-style:normal;font-weight:normal;line-height:125%;letter-spacing:0px;word-spacing:0px;fill:#ffc113;fill-opacity:1;stroke:none;font-family:Sans"
       x="752.01154"
       y="159.47475"
       id="labelB"
       sodipodi:linespacing="125%"><tspan
         sodipodi:role="line"
         id="tspan2996-1"
         x="752.01154"
         y="159.47475">Set B</tspan></text>
    <text
       xml:space="preserve"
       style="font-size:18.11433983px;font-style:normal;font-weight:normal;line-height:125%;letter-spacing:0px;word-spacing:0px;fill:#009d00;fill-opacity:0.77173911;stroke:none;font-family:Sans"
       x="271.96078"
       y="322.73135"
       id="labelD"
       sodipodi:linespacing="125%"><tspan
         sodipodi:role="line"
         id="tspan2996-8"
         x="271.96078"
         y="322.73135">Set D</tspan></text>
    <text
       xml:space="preserve"
       style="font-size:18.11433983px;font-style:normal;font-weight:normal;line-height:125%;letter-spacing:0px;word-spacing:0px;fill:#3352f5;fill-opacity:0.84782607;stroke:none;font-family:Sans"
       x="543.28156"
       y="207.31473"
       id="labelE"
       sodipodi:linespacing="125%"><tspan
         sodipodi:role="line"
         id="tspan2996-18"
         x="543.28156"
         y="207.31473">Set E </tspan></text>
    <text
       xml:space="preserve"
       style="font-size:18.11433983px;font-style:normal;font-weight:normal;line-height:125%;letter-spacing:0px;word-spacing:0px;fill:#6c6c73;fill-opacity:0.94202899;stroke:none;font-family:Sans"
       x="476.14618"
       y="255.59599"
       id="labelC"
       sodipodi:linespacing="125%"><tspan
         sodipodi:role="line"
         id="tspan2996-3"
         x="476.14618"
         y="255.59599">Set C</tspan></text>
    <text
       xml:space="preserve"
       style="font-size:18.11433983px;font-style:normal;font-weight:normal;line-height:125%;letter-spacing:0px;word-spacing:0px;fill:#22c4e6;fill-opacity:0.8405797;stroke:none;font-family:Sans"
       x="372.39157"
       y="231.18307"
       id="labelF"
       sodipodi:linespacing="125%"><tspan
         sodipodi:role="line"
         id="tspan2996-7"
         x="372.39157"
         y="231.18307">Set F</tspan></text>
    <path
       style="fill:none;stroke:#000000;stroke-width:1.1933744;stroke-linecap:butt;stroke-linejoin:miter;stroke-miterlimit:4;stroke-opacity:0.49275363;stroke-dasharray:1.19337442, 3.58012327;stroke-dashoffset:0"
       d="M 509.21919,297.87808 412.6879,241.628"
       id="path3829"
       inkscape:connector-curvature="0" />
    <path
       style="fill:none;stroke:#000000;stroke-width:1.618;stroke-linecap:butt;stroke-linejoin:miter;stroke-miterlimit:4;stroke-opacity:0.33695655000000002;stroke-dasharray:1.618,6.472;stroke-dashoffset:0"
       d="M 554.67058,295.72439 528.9485,277.53259"
       id="path3851"
       inkscape:connector-curvature="0" />
    <text
       xml:space="preserve"
       style="font-size:10.35105038px;font-style:normal;font-weight:normal;line-height:125%;letter-spacing:0px;word-spacing:0px;fill:#000000;fill-opacity:1;stroke:none;font-family:Sans"
       x="864.37592"
       y="240.4576"
       id="b"
       sodipodi:linespacing="125%"><tspan
         sodipodi:role="line"
         id="tspan3875"
         x="864.37592"
         y="240.4576">b</tspan></text>
    <text
       xml:space="preserve"
       style="font-size:10.35105038px;font-style:normal;font-weight:normal;line-height:125%;letter-spacing:0px;word-spacing:0px;fill:#000000;fill-opacity:1;stroke:none;font-family:Sans"
       x="522.59601"
       y="315.20978"
       id="f"
       sodipodi:linespacing="125%"><tspan
         sodipodi:role="line"
         id="tspan3883"
         x="522.59601"
         y="315.20978">f</tspan></text>
    <text
       xml:space="preserve"
       style="font-size:10.35105038px;font-style:normal;font-weight:normal;line-height:125%;letter-spacing:0px;word-spacing:0px;fill:#000000;fill-opacity:1;stroke:none;font-family:Sans"
       x="571.53442"
       y="304.86993"
       id="ce"
       sodipodi:linespacing="125%"><tspan
         sodipodi:role="line"
         id="tspan3895"
         x="571.53442"
         y="304.86993">ce</tspan></text>
    <text
       xml:space="preserve"
       style="font-size:10.35105038px;font-style:normal;font-weight:normal;line-height:125%;letter-spacing:0px;word-spacing:0px;fill:#000000;fill-opacity:1;stroke:none;font-family:Sans"
       x="707.16168"
       y="312.11386"
       id="bf"
       sodipodi:linespacing="125%"><tspan
         sodipodi:role="line"
         id="tspan3927"
         x="707.16168"
         y="312.11386">bf</tspan></text>
    <text
       xml:space="preserve"
       style="font-size:10.35105038px;font-style:normal;font-weight:normal;line-height:125%;letter-spacing:0px;word-spacing:0px;fill:#000000;fill-opacity:1;stroke:none;font-family:Sans"
       x="369.31494"
       y="475.04703"
       id="ad"
       sodipodi:linespacing="125%"><tspan
         sodipodi:role="line"
         id="tspan3951"
         x="369.31494"
         y="475.04703">ad</tspan></text>
    <text
       xml:space="preserve"
       style="font-size:10.35105038px;font-style:normal;font-weight:normal;line-height:125%;letter-spacing:0px;word-spacing:0px;fill:#000000;fill-opacity:1;stroke:none;font-family:Sans"
       x="820.97534"
       y="490.02252"
       id="abd"
       sodipodi:linespacing="125%"><tspan
         sodipodi:role="line"
         id="tspan3959"
         x="820.97534"
         y="490.02252">abd</tspan></text>
    <text
       xml:space="preserve"
       style="font-size:10.35105038px;font-style:normal;font-weight:normal;line-height:125%;letter-spacing:0px;word-spacing:0px;fill:#000000;fill-opacity:1;stroke:none;font-family:Sans"
       x="502.89621"
       y="461.86865"
       id="acde"
       sodipodi:linespacing="125%"><tspan
         sodipodi:role="line"
         id="tspan4007"
         x="502.89621"
         y="461.86865">acde</tspan></text>
    <text
       xml:space="preserve"
       style="font-size:10.35105038px;font-style:normal;font-weight:normal;line-height:125%;letter-spacing:0px;word-spacing:0px;fill:#000000;fill-opacity:1;stroke:none;font-family:Sans"
       x="720.34009"
       y="465.46274"
       id="abcde"
       sodipodi:linespacing="125%"><tspan
         sodipodi:role="line"
         id="tspan4011"
         x="720.34009"
         y="465.46274">abcde</tspan></text>
    <text
       xml:space="preserve"
       style="font-size:10.35105038px;font-style:normal;font-weight:normal;line-height:125%;letter-spacing:0px;word-spacing:0px;fill:#000000;fill-opacity:1;stroke:none;font-family:Sans"
       x="506.4903"
       y="516.58234"
       id="adf"
       sodipodi:linespacing="125%"><tspan
         sodipodi:role="line"
         id="tspan4027"
         x="506.4903"
         y="516.58234">adf</tspan></text>
    <text
       xml:space="preserve"
       style="font-size:10.35105038px;font-style:normal;font-weight:normal;line-height:125%;letter-spacing:0px;word-spacing:0px;fill:#000000;fill-opacity:1;stroke:none;font-family:Sans"
       x="717.74109"
       y="516.18628"
       id="abdf"
       sodipodi:linespacing="125%"><tspan
         sodipodi:role="line"
         id="tspan4031"
         x="717.74109"
         y="516.18628">abdf</tspan></text>
    <text
       xml:space="preserve"
       style="font-size:10.35105038px;font-style:normal;font-weight:normal;line-height:125%;letter-spacing:0px;word-spacing:0px;fill:#000000;fill-opacity:1;stroke:none;font-family:Sans"
       x="654.69019"
       y="448.09122"
       id="abcdef"
       sodipodi:linespacing="125%"><tspan
         sodipodi:role="line"
         id="tspan4051"
         x="654.69019"
         y="448.09122">abcdef</tspan></text>
    <text
       xml:space="preserve"
       style="font-size:10.35105038px;font-style:normal;font-weight:normal;line-height:125%;letter-spacing:0px;word-spacing:0px;fill:#000000;fill-opacity:1;stroke:none;font-family:Sans"
       x="556.81775"
       y="446.29413"
       id="acdef"
       sodipodi:linespacing="125%"><tspan
         sodipodi:role="line"
         id="tspan4055"
         x="556.81775"
         y="446.29413">acdef</tspan></text>
    <text
       xml:space="preserve"
       style="font-size:10.35105038px;font-style:normal;font-weight:normal;line-height:125%;letter-spacing:0px;word-spacing:0px;fill:#000000;fill-opacity:1;stroke:none;font-family:Sans"
       x="579.57062"
       y="337.87167"
       id="cef"
       sodipodi:linespacing="125%"><tspan
         sodipodi:role="line"
         id="tspan4099"
         x="579.57062"
         y="337.87167">cef</tspan></text>
    <text
       xml:space="preserve"
       style="font-size:10.35105038px;font-style:normal;font-weight:normal;line-height:125%;letter-spacing:0px;word-spacing:0px;fill:#000000;fill-opacity:1;stroke:none;font-family:Sans"
       x="631.08624"
       y="334.87659"
       id="bcef"
       sodipodi:linespacing="125%"><tspan
         sodipodi:role="line"
         id="tspan4103"
         x="631.08624"
         y="334.87659">bcef</tspan></text>
    <text
       xml:space="preserve"
       style="font-size:10.35105038px;font-style:normal;font-weight:normal;line-height:125%;letter-spacing:0px;word-spacing:0px;fill:#000000;fill-opacity:1;stroke:none;font-family:Sans"
       x="648.45776"
       y="301.93054"
       id="bce"
       sodipodi:linespacing="125%"><tspan
         sodipodi:role="line"
         id="tspan4111"
         x="648.45776"
         y="301.93054">bce</tspan></text>
    <text
       xml:space="preserve"
       style="font-size:18.11433983px;font-style:normal;font-weight:normal;line-height:125%;letter-spacing:0px;word-spacing:0px;fill:#009d00;fill-opacity:0.77173911;stroke:none;font-family:Sans"
       x="270.14035"
       y="338.46307"
       id="totalD"
       sodipodi:linespacing="125%"
       inkscape:label="#labelD-0"><tspan
         sodipodi:role="line"
         id="tspan2996-8-1"
         x="270.14035"
         y="338.46307">(total)</tspan></text>
    <text
       xml:space="preserve"
       style="font-size:18.11433983px;font-style:normal;font-weight:normal;line-height:125%;letter-spacing:0px;word-spacing:0px;fill:#22c4e6;fill-opacity:0.8405797;stroke:none;font-family:Sans"
       x="370.89606"
       y="246.46309"
       id="totalF"
       sodipodi:linespacing="125%"
       inkscape:label="#labelF-1"><tspan
         sodipodi:role="line"
         id="tspan2996-7-5"
         x="370.89606"
         y="246.46309">(total)</tspan></text>
    <text
       xml:space="preserve"
       style="font-size:18.11433983px;font-style:normal;font-weight:normal;line-height:125%;letter-spacing:0px;word-spacing:0px;fill:#6c6c73;fill-opacity:0.94202899;stroke:none;font-family:Sans"
       x="473.74622"
       y="271.4631"
       id="totalC"
       sodipodi:linespacing="125%"
       inkscape:label="#labelC-9"><tspan
         sodipodi:role="line"
         id="tspan2996-3-3"
         x="473.74622"
         y="271.4631">(total)</tspan></text>
    <text
       xml:space="preserve"
       style="font-size:18.11433983px;font-style:normal;font-weight:normal;line-height:125%;letter-spacing:0px;word-spacing:0px;fill:#3352f5;fill-opacity:0.84782607;stroke:none;font-family:Sans"
       x="541.84796"
       y="222.46309"
       id="totalE"
       sodipodi:linespacing="125%"
       inkscape:label="#labelE-6"><tspan
         sodipodi:role="line"
         id="tspan2996-18-0"
         x="541.84796"
         y="222.46309">(total)</tspan></text>
    <text
       xml:space="preserve"
       style="font-size:18.11433983px;font-style:normal;font-weight:normal;line-height:125%;letter-spacing:0px;word-spacing:0px;fill:#ffc113;fill-opacity:1;stroke:none;font-family:Sans"
       x="751.00714"
       y="175.46309"
       id="totalB"
       sodipodi:linespacing="125%"
       inkscape:label="#labelB-6"><tspan
         sodipodi:role="line"
         id="tspan2996-1-9"
         x="751.00714"
         y="175.46309">(total)</tspan></text>
    <text
       xml:space="preserve"
       style="font-size:18.11433983px;font-style:normal;font-weight:normal;line-height:125%;letter-spacing:0px;word-spacing:0px;fill:#ff6706;fill-opacity:1;stroke:none;font-family:Sans"
       x="392.45877"
       y="695.46307"
       id="totalA"
       sodipodi:linespacing="125%"
       inkscape:label="#labelA-4"><tspan
         sodipodi:role="line"
         id="tspan2996-9"
         x="392.45877"
         y="695.46307">(total)</tspan></text>
  </g>
</svg>
