<?xml version="1.0" encoding="UTF-8" standalone="no"?>
<!-- Created with Inkscape (http://www.inkscape.org/) -->

<svg
   xmlns:osb="http://www.openswatchbook.org/uri/2009/osb"
   xmlns:dc="http://purl.org/dc/elements/1.1/"
   xmlns:cc="http://creativecommons.org/ns#"
   xmlns:rdf="http://www.w3.org/1999/02/22-rdf-syntax-ns#"
   xmlns:svg="http://www.w3.org/2000/svg"
   xmlns="http://www.w3.org/2000/svg"
   xmlns:sodipodi="http://sodipodi.sourceforge.net/DTD/sodipodi-0.dtd"
   xmlns:inkscape="http://www.inkscape.org/namespaces/inkscape"
   width="712"
   height="641"
   id="diagram"
   sodipodi:version="0.32"
   inkscape:version="0.48.4 r9939"
   version="1.0"
   sodipodi:docname="6waydiagram_ac_ef.svg">
  <defs
     id="defs4">
    <linearGradient
       id="linearGradient5216"
       osb:paint="solid">
      <stop
         style="stop-color:#00a300;stop-opacity:1;"
         offset="0"
         id="stop5218" />
    </linearGradient>
    <linearGradient
       id="linearGradient5210"
       osb:paint="solid">
      <stop
         style="stop-color:#00a300;stop-opacity:1;"
         offset="0"
         id="stop5212" />
    </linearGradient>
  </defs>
  <sodipodi:namedview
     id="base"
     pagecolor="#ffffff"
     bordercolor="#666666"
     borderopacity="1.0"
     gridtolerance="10000"
     guidetolerance="10"
     objecttolerance="10"
     inkscape:pageopacity="0.0"
     inkscape:pageshadow="2"
     inkscape:zoom="1.4142136"
     inkscape:cx="289.98875"
     inkscape:cy="952.98958"
     inkscape:document-units="px"
     inkscape:current-layer="layer1"
     inkscape:window-width="1861"
     inkscape:window-height="1056"
     inkscape:window-x="59"
     inkscape:window-y="24"
     showgrid="false"
     inkscape:window-maximized="1"
     showguides="true"
     inkscape:guide-bbox="true" />
  <metadata
     id="metadata7">
    <rdf:RDF>
      <cc:Work
         rdf:about="">
        <dc:format>image/svg+xml</dc:format>
        <dc:type
           rdf:resource="http://purl.org/dc/dcmitype/StillImage" />
        <dc:title />
      </cc:Work>
    </rdf:RDF>
  </metadata>
  <g
     inkscape:label="Layer 1"
     inkscape:groupmode="layer"
     id="layer1"
     transform="translate(-266.937,-95.869222)">
    <path
       style="color:#000000;fill:#ffa76d;fill-opacity:0.18000004;fill-rule:nonzero;stroke:#000000;stroke-width:0.75;stroke-linecap:butt;stroke-linejoin:miter;stroke-miterlimit:4;stroke-opacity:1;stroke-dasharray:none;stroke-dashoffset:0;marker:none;visibility:visible;display:inline;overflow:visible"
       d="M 356.78125 188.625 C 284.16476 188.625 225.28125 247.50851 225.28125 320.125 C 225.28125 322.06879 225.35401 323.98302 225.4375 325.90625 L 30.6875 325.90625 A 24.593683 23.37521 0 0 0 6.09375 349.28125 L 6.09375 539.78125 A 24.593683 23.37521 0 0 0 30.6875 563.15625 L 683.1875 563.15625 A 24.593683 23.37521 0 0 0 707.78125 539.78125 L 707.78125 349.28125 A 24.593683 23.37521 0 0 0 683.1875 325.90625 L 488.125 325.90625 C 488.20848 323.98317 488.25 322.06864 488.25 320.125 C 488.25 247.50851 429.39774 188.625 356.78125 188.625 z "
       transform="translate(266.937,95.869222)"
       id="elipseA" />
    <path
       sodipodi:type="inkscape:offset"
       inkscape:radius="7.323606"
       inkscape:original="M 372.46875 373 L 372.46875 503.375 L 473.53125 503.375 L 473.53125 373 L 372.46875 373 z "
       style="color:#000000;fill:#ffff8e;fill-opacity:0.18000004;fill-rule:nonzero;stroke:#000000;stroke-width:0.23604085999999999;stroke-linecap:butt;stroke-linejoin:miter;stroke-miterlimit:4;stroke-opacity:1;stroke-dasharray:none;stroke-dashoffset:0;marker:none;visibility:visible;display:inline;overflow:visible"
       id="elipseB"
       d="M 372.46875,365.6875 A 7.3243384,7.3243384 0 0 0 365.15625,373 l 0,130.375 a 7.3243384,7.3243384 0 0 0 7.3125,7.3125 l 101.0625,0 a 7.3243384,7.3243384 0 0 0 7.3125,-7.3125 l 0,-130.375 a 7.3243384,7.3243384 0 0 0 -7.3125,-7.3125 l -101.0625,0 z"
       transform="matrix(3.0788838,0,0,3.2791015,-505.85489,-1015.6844)"
       inkscape:label="#path6829" />
    <path
       style="fill:#8bff8b;fill-opacity:0.18431373;stroke:#000000;stroke-width:0.75000000000000000;stroke-miterlimit:4;stroke-opacity:1;stroke-dasharray:none"
       d="m 408.60329,552.09783 c -49.50716,-10.69782 -90.76011,-52.42995 -102.32853,-101.44198 -0.7923,-30.51994 -5.99848,-63.9179 10.51554,-91.50927 28.87227,-60.19474 105.8442,-91.16622 168.02718,-66.03307 38.40706,14.70214 62.37609,53.62642 103.69728,62.6469 46.78695,14.95129 97.90758,-5.41593 131.20079,-39.18563 48.13311,-42.6094 126.80186,-42.47832 174.4822,0.76452 25.23177,23.06071 47.17638,55.38568 43.70115,91.14251 1.07569,30.76886 -0.6033,63.98288 -21.57151,88.60602 -35.03904,52.96508 -110.30888,72.5868 -166.95763,43.93775 -35.87317,-16.47457 -59.70388,-54.94883 -101.23392,-59.63145 -29.28802,-8.53293 -61.05089,-1.0652 -87.73696,12.13403 -22.31878,13.25705 -38.25287,34.81124 -62.36976,45.46001 -26.46836,15.64079 -59.67707,17.08384 -89.42583,13.10966 z"
       id="elipseD"
       inkscape:label="#path8609"
       inkscape:connector-curvature="0" />
    <path
       style="fill:#7f93f6;fill-opacity:0.18431373000000001;stroke:#000000;stroke-width:0.75000000000000000;stroke-miterlimit:4;stroke-opacity:1;stroke-dasharray:none"
       d="M 354.90625 125.34375 C 333.36228 125.14529 312.22266 137.31813 303.125 157.375 C 298.67498 180.34827 303.17821 203.89823 302.90625 227.1875 C 296.38908 226.79368 289.57604 223.97292 283.46875 218.28125 C 271.3024 206.94285 260.68115 203.06216 253.03125 207.15625 C 234.91621 216.85114 231.6017 231.97667 244.71875 245.09375 C 255.40649 255.78148 260.28618 265.68752 259.4375 275.09375 C 259.20985 275.16299 258.97643 275.24495 258.75 275.3125 C 237.85008 272.78182 216.40375 263.52594 195.15625 270.1875 C 161.73351 279.04405 148.95578 321.85478 163.9375 350.84375 C 176.88186 377.35679 210.46666 384.29284 236.8125 376.375 C 244.2305 372.50994 251.79925 370.95076 259.1875 371.34375 C 259.97142 379.08228 256.79265 387.09519 249.6875 395.1875 C 236.67217 410.01115 234.49894 422.84495 243.25 433.125 C 250.96358 442.18625 267.47032 443.39626 273.9375 436.25 C 283.00463 426.23072 294.20398 421.3495 304.3125 421.21875 C 304.50643 430.43766 303.21241 439.84973 301.53125 448.5625 C 294.47376 474.41324 303.7879 506.24246 329.875 517.46875 C 336.31226 520.15939 343.41541 520.73197 350.3125 521.03125 C 372.1498 523.23517 394.37283 513.04763 404.65625 493.1875 C 415.52031 470.66905 405.69345 445.0615 404.59375 421.5 C 404.67108 420.61447 404.78444 419.72537 404.875 418.84375 C 413.26524 418.29374 421.94319 421.61575 428.375 430 C 435.23955 438.94837 448.54689 444.70782 460.65625 438.71875 C 467.21333 435.47572 471.82576 429.1469 472.03125 422.46875 C 472.28326 414.27892 470.84923 408.6305 466.40625 404.1875 C 454.64564 392.42691 450.28272 384.16266 450.96875 373.96875 C 470.78378 374.79797 491.09462 383.71581 510.09375 378.875 C 539.42199 373.94271 555.22683 342.01325 550.90625 314.40625 C 549.27688 279.40651 506.85605 257.84309 475.84375 270.0625 C 467.57612 274.23414 458.58346 275.38209 449.84375 274.1875 C 449.54204 264.73642 455.17903 254.16472 466.71875 242.625 C 474.51625 234.8275 474.22169 223.13121 466.03125 213.6875 C 456.40548 202.58896 442.1521 203.66066 428.9375 216.46875 C 420.95032 224.21022 415.24902 226.84375 406.46875 226.84375 C 405.93509 226.84375 405.39115 226.82712 404.875 226.8125 C 404.89261 210.30852 409.64429 193.92733 408.53125 177.25 C 411.6123 152.47312 390.61584 130.0552 366.84375 126.75 C 362.89977 125.83757 358.89587 125.3805 354.90625 125.34375 z "
       transform="translate(266.937,95.869222)"
       id="elipseE" />
    <text
       xml:space="preserve"
       style="font-size:18.11433983px;font-style:normal;font-weight:normal;line-height:125%;letter-spacing:0px;word-spacing:0px;fill:#ff6706;fill-opacity:1;stroke:none;font-family:Sans"
       x="394.97287"
       y="679.44971"
       id="labelA"
       sodipodi:linespacing="125%"><tspan
         sodipodi:role="line"
         id="tspan2996"
         x="394.97287"
         y="679.44971">Set A</tspan></text>
    <text
       xml:space="preserve"
       style="font-size:18.11433983px;font-style:normal;font-weight:normal;line-height:125%;letter-spacing:0px;word-spacing:0px;fill:#ffc113;fill-opacity:1;stroke:none;font-family:Sans"
       x="752.01154"
       y="159.47475"
       id="labelB"
       sodipodi:linespacing="125%"><tspan
         sodipodi:role="line"
         id="tspan2996-1"
         x="752.01154"
         y="159.47475">Set B</tspan></text>
    <text
       xml:space="preserve"
       style="font-size:18.11433983px;font-style:normal;font-weight:normal;line-height:125%;letter-spacing:0px;word-spacing:0px;fill:#009d00;fill-opacity:0.77173911;stroke:none;font-family:Sans"
       x="271.96078"
       y="322.73135"
       id="labelD"
       sodipodi:linespacing="125%"><tspan
         sodipodi:role="line"
         id="tspan2996-8"
         x="271.96078"
         y="322.73135">Set D</tspan></text>
    <text
       xml:space="preserve"
       style="font-size:18.11433983px;font-style:normal;font-weight:normal;line-height:125%;letter-spacing:0px;word-spacing:0px;fill:#3352f5;fill-opacity:0.84782607;stroke:none;font-family:Sans"
       x="543.28156"
       y="207.31473"
       id="labelE"
       sodipodi:linespacing="125%"><tspan
         sodipodi:role="line"
         id="tspan2996-18"
         x="543.28156"
         y="207.31473">Set E </tspan></text>
    <text
       xml:space="preserve"
       style="font-size:18.11433983px;font-style:normal;font-weight:normal;line-height:125%;letter-spacing:0px;word-spacing:0px;fill:#6c6c73;fill-opacity:0.94202899;stroke:none;font-family:Sans"
       x="476.14618"
       y="255.59599"
       id="labelC"
       sodipodi:linespacing="125%"><tspan
         sodipodi:role="line"
         id="tspan2996-3"
         x="476.14618"
         y="255.59599">Set C</tspan></text>
    <text
       xml:space="preserve"
       style="font-size:18.11433983px;font-style:normal;font-weight:normal;line-height:125%;letter-spacing:0px;word-spacing:0px;fill:#22c4e6;fill-opacity:0.8405797;stroke:none;font-family:Sans"
       x="372.39157"
       y="231.18307"
       id="labelF"
       sodipodi:linespacing="125%"><tspan
         sodipodi:role="line"
         id="tspan2996-7"
         x="372.39157"
         y="231.18307">Set F</tspan></text>
    <path
       style="fill:none;stroke:#000000;stroke-width:1.1933744;stroke-linecap:butt;stroke-linejoin:miter;stroke-miterlimit:4;stroke-opacity:0.49275363;stroke-dasharray:1.19337442, 3.58012327;stroke-dashoffset:0"
       d="M 509.21919,297.87808 412.6879,241.628"
       id="path3829"
       inkscape:connector-curvature="0" />
    <path
       style="fill:none;stroke:#000000;stroke-width:1.618;stroke-linecap:butt;stroke-linejoin:miter;stroke-miterlimit:4;stroke-opacity:0.33695655000000002;stroke-dasharray:1.618,6.472;stroke-dashoffset:0"
       d="M 554.67058,295.72439 528.9485,277.53259"
       id="path3851"
       inkscape:connector-curvature="0" />
    <text
       xml:space="preserve"
       style="font-size:10.35105038px;font-style:normal;font-weight:normal;line-height:125%;letter-spacing:0px;word-spacing:0px;fill:#000000;fill-opacity:1;stroke:none;font-family:Sans"
       x="864.37592"
       y="240.4576"
       id="b"
       sodipodi:linespacing="125%"><tspan
         sodipodi:role="line"
         id="tspan3875"
         x="864.37592"
         y="240.4576">b</tspan></text>
    <text
       xml:space="preserve"
       style="font-size:10.35105038px;font-style:normal;font-weight:normal;line-height:125%;letter-spacing:0px;word-spacing:0px;fill:#000000;fill-opacity:1;stroke:none;font-family:Sans"
       x="384.32159"
       y="360.47119"
       id="d"
       sodipodi:linespacing="125%"><tspan
         sodipodi:role="line"
         id="tspan3887"
         x="384.32159"
         y="360.47119">d</tspan></text>
    <text
       xml:space="preserve"
       style="font-size:10.35105038px;font-style:normal;font-weight:normal;line-height:125%;letter-spacing:0px;word-spacing:0px;fill:#000000;fill-opacity:1;stroke:none;font-family:Sans"
       x="601.40259"
       y="280.49466"
       id="ef"
       sodipodi:linespacing="125%"><tspan
         sodipodi:role="line"
         id="tspan3899"
         x="601.40259"
         y="280.49466">ef</tspan></text>
    <text
       xml:space="preserve"
       style="font-size:10.35105038px;font-style:normal;font-weight:normal;line-height:125%;letter-spacing:0px;word-spacing:0px;fill:#000000;fill-opacity:1;stroke:none;font-family:Sans"
       x="619.21832"
       y="278.60358"
       id="bef"
       sodipodi:linespacing="125%"><tspan
         sodipodi:role="line"
         id="tspan3903"
         x="619.21832"
         y="278.60358">bef</tspan></text>
    <text
       xml:space="preserve"
       style="font-size:10.35105038px;font-style:normal;font-weight:normal;line-height:125%;letter-spacing:0px;word-spacing:0px;fill:#000000;fill-opacity:1;stroke:none;font-family:Sans"
       x="824.56946"
       y="354.6442"
       id="bd"
       sodipodi:linespacing="125%"><tspan
         sodipodi:role="line"
         id="tspan3931"
         x="824.56946"
         y="354.6442">bd</tspan></text>
    <text
       xml:space="preserve"
       style="font-size:10.35105038px;font-style:normal;font-weight:normal;line-height:125%;letter-spacing:0px;word-spacing:0px;fill:#000000;fill-opacity:1;stroke:none;font-family:Sans"
       x="555.01086"
       y="526.56274"
       id="ac"
       sodipodi:linespacing="125%"><tspan
         sodipodi:role="line"
         id="tspan3943"
         x="555.01086"
         y="526.56274">ac</tspan></text>
    <text
       xml:space="preserve"
       style="font-size:10.35105038px;font-style:normal;font-weight:normal;line-height:125%;letter-spacing:0px;word-spacing:0px;fill:#000000;fill-opacity:1;stroke:none;font-family:Sans"
       x="575.97656"
       y="507.39404"
       id="acef"
       sodipodi:linespacing="125%"><tspan
         sodipodi:role="line"
         id="tspan3987"
         x="575.97656"
         y="507.39404">acef</tspan></text>
    <text
       xml:space="preserve"
       style="font-size:10.35105038px;font-style:normal;font-weight:normal;line-height:125%;letter-spacing:0px;word-spacing:0px;fill:#000000;fill-opacity:1;stroke:none;font-family:Sans"
       x="625.09613"
       y="508.59213"
       id="abcef"
       sodipodi:linespacing="125%"><tspan
         sodipodi:role="line"
         id="tspan3991"
         x="625.09613"
         y="508.59213">abcef</tspan></text>
    <text
       xml:space="preserve"
       style="font-size:10.35105038px;font-style:normal;font-weight:normal;line-height:125%;letter-spacing:0px;word-spacing:0px;fill:#000000;fill-opacity:1;stroke:none;font-family:Sans"
       x="654.69019"
       y="448.09122"
       id="abcdef"
       sodipodi:linespacing="125%"><tspan
         sodipodi:role="line"
         id="tspan4051"
         x="654.69019"
         y="448.09122">abcdef</tspan></text>
    <text
       xml:space="preserve"
       style="font-size:10.35105038px;font-style:normal;font-weight:normal;line-height:125%;letter-spacing:0px;word-spacing:0px;fill:#000000;fill-opacity:1;stroke:none;font-family:Sans"
       x="556.81775"
       y="446.29413"
       id="acdef"
       sodipodi:linespacing="125%"><tspan
         sodipodi:role="line"
         id="tspan4055"
         x="556.81775"
         y="446.29413">acdef</tspan></text>
    <text
       xml:space="preserve"
       style="font-size:10.35105038px;font-style:normal;font-weight:normal;line-height:125%;letter-spacing:0px;word-spacing:0px;fill:#000000;fill-opacity:1;stroke:none;font-family:Sans"
       x="465.95013"
       y="417.34808"
       id="def"
       sodipodi:linespacing="125%"><tspan
         sodipodi:role="line"
         id="tspan4067"
         x="465.95013"
         y="417.34808">def</tspan></text>
    <text
       xml:space="preserve"
       style="font-size:10.35105038px;font-style:normal;font-weight:normal;line-height:125%;letter-spacing:0px;word-spacing:0px;fill:#000000;fill-opacity:1;stroke:none;font-family:Sans"
       x="754.88031"
       y="416.95203"
       id="bdef"
       sodipodi:linespacing="125%"><tspan
         sodipodi:role="line"
         id="tspan4075"
         x="754.88031"
         y="416.95203">bdef</tspan></text>
    <text
       xml:space="preserve"
       style="font-size:10.35105038px;font-style:normal;font-weight:normal;line-height:125%;letter-spacing:0px;word-spacing:0px;fill:#000000;fill-opacity:1;stroke:none;font-family:Sans"
       x="508.88635"
       y="478.6412"
       id="acd"
       sodipodi:linespacing="125%"><tspan
         sodipodi:role="line"
         id="tspan4115"
         x="508.88635"
         y="478.6412">acd</tspan></text>
    <text
       xml:space="preserve"
       style="font-size:10.35105038px;font-style:normal;font-weight:normal;line-height:125%;letter-spacing:0px;word-spacing:0px;fill:#000000;fill-opacity:1;stroke:none;font-family:Sans"
       x="718.13721"
       y="481.43332"
       id="abcd"
       sodipodi:linespacing="125%"><tspan
         sodipodi:role="line"
         id="tspan4123"
         x="718.13721"
         y="481.43332">abcd</tspan></text>
    <text
       xml:space="preserve"
       style="font-size:10.35105038px;font-style:normal;font-weight:normal;line-height:125%;letter-spacing:0px;word-spacing:0px;fill:#000000;fill-opacity:1;stroke:none;font-family:Sans"
       x="670.64551"
       y="526.94611"
       id="abc"
       sodipodi:linespacing="125%"><tspan
         sodipodi:role="line"
         id="tspan4127"
         x="670.64551"
         y="526.94611">abc</tspan></text>
    <text
       xml:space="preserve"
       style="font-size:18.11433983px;font-style:normal;font-weight:normal;line-height:125%;letter-spacing:0px;word-spacing:0px;fill:#009d00;fill-opacity:0.77173911;stroke:none;font-family:Sans"
       x="270.14035"
       y="338.46307"
       id="totalD"
       sodipodi:linespacing="125%"
       inkscape:label="#labelD-0"><tspan
         sodipodi:role="line"
         id="tspan2996-8-1"
         x="270.14035"
         y="338.46307">(total)</tspan></text>
    <text
       xml:space="preserve"
       style="font-size:18.11433983px;font-style:normal;font-weight:normal;line-height:125%;letter-spacing:0px;word-spacing:0px;fill:#22c4e6;fill-opacity:0.8405797;stroke:none;font-family:Sans"
       x="370.89606"
       y="246.46309"
       id="totalF"
       sodipodi:linespacing="125%"
       inkscape:label="#labelF-1"><tspan
         sodipodi:role="line"
         id="tspan2996-7-5"
         x="370.89606"
         y="246.46309">(total)</tspan></text>
    <text
       xml:space="preserve"
       style="font-size:18.11433983px;font-style:normal;font-weight:normal;line-height:125%;letter-spacing:0px;word-spacing:0px;fill:#6c6c73;fill-opacity:0.94202899;stroke:none;font-family:Sans"
       x="473.74622"
       y="271.4631"
       id="totalC"
       sodipodi:linespacing="125%"
       inkscape:label="#labelC-9"><tspan
         sodipodi:role="line"
         id="tspan2996-3-3"
         x="473.74622"
         y="271.4631">(total)</tspan></text>
    <text
       xml:space="preserve"
       style="font-size:18.11433983px;font-style:normal;font-weight:normal;line-height:125%;letter-spacing:0px;word-spacing:0px;fill:#3352f5;fill-opacity:0.84782607;stroke:none;font-family:Sans"
       x="541.84796"
       y="222.46309"
       id="totalE"
       sodipodi:linespacing="125%"
       inkscape:label="#labelE-6"><tspan
         sodipodi:role="line"
         id="tspan2996-18-0"
         x="541.84796"
         y="222.46309">(total)</tspan></text>
    <text
       xml:space="preserve"
       style="font-size:18.11433983px;font-style:normal;font-weight:normal;line-height:125%;letter-spacing:0px;word-spacing:0px;fill:#ffc113;fill-opacity:1;stroke:none;font-family:Sans"
       x="751.00714"
       y="175.46309"
       id="totalB"
       sodipodi:linespacing="125%"
       inkscape:label="#labelB-6"><tspan
         sodipodi:role="line"
         id="tspan2996-1-9"
         x="751.00714"
         y="175.46309">(total)</tspan></text>
    <text
       xml:space="preserve"
       style="font-size:18.11433983px;font-style:normal;font-weight:normal;line-height:125%;letter-spacing:0px;word-spacing:0px;fill:#ff6706;fill-opacity:1;stroke:none;font-family:Sans"
       x="392.45877"
       y="695.46307"
       id="totalA"
       sodipodi:linespacing="125%"
       inkscape:label="#labelA-4"><tspan
         sodipodi:role="line"
         id="tspan2996-9"
         x="392.45877"
         y="695.46307">(total)</tspan></text>
  </g>
</svg>
