<?xml version="1.0" encoding="UTF-8" standalone="no"?>
<!-- Created with Inkscape (http://www.inkscape.org/) -->

<svg
   xmlns:osb="http://www.openswatchbook.org/uri/2009/osb"
   xmlns:dc="http://purl.org/dc/elements/1.1/"
   xmlns:cc="http://creativecommons.org/ns#"
   xmlns:rdf="http://www.w3.org/1999/02/22-rdf-syntax-ns#"
   xmlns:svg="http://www.w3.org/2000/svg"
   xmlns="http://www.w3.org/2000/svg"
   xmlns:sodipodi="http://sodipodi.sourceforge.net/DTD/sodipodi-0.dtd"
   xmlns:inkscape="http://www.inkscape.org/namespaces/inkscape"
   width="712"
   height="641"
   id="diagram"
   sodipodi:version="0.32"
   inkscape:version="0.48.4 r9939"
   version="1.0"
   sodipodi:docname="6waydiagram_ae_cf.svg">
  <defs
     id="defs4">
    <linearGradient
       id="linearGradient5216"
       osb:paint="solid">
      <stop
         style="stop-color:#00a300;stop-opacity:1;"
         offset="0"
         id="stop5218" />
    </linearGradient>
    <linearGradient
       id="linearGradient5210"
       osb:paint="solid">
      <stop
         style="stop-color:#00a300;stop-opacity:1;"
         offset="0"
         id="stop5212" />
    </linearGradient>
  </defs>
  <sodipodi:namedview
     id="base"
     pagecolor="#ffffff"
     bordercolor="#666666"
     borderopacity="1.0"
     gridtolerance="10000"
     guidetolerance="10"
     objecttolerance="10"
     inkscape:pageopacity="0.0"
     inkscape:pageshadow="2"
     inkscape:zoom="1.4142136"
     inkscape:cx="289.98875"
     inkscape:cy="359.0199"
     inkscape:document-units="px"
     inkscape:current-layer="layer1"
     inkscape:window-width="1861"
     inkscape:window-height="1056"
     inkscape:window-x="59"
     inkscape:window-y="24"
     showgrid="false"
     inkscape:window-maximized="1"
     showguides="true"
     inkscape:guide-bbox="true" />
  <metadata
     id="metadata7">
    <rdf:RDF>
      <cc:Work
         rdf:about="">
        <dc:format>image/svg+xml</dc:format>
        <dc:type
           rdf:resource="http://purl.org/dc/dcmitype/StillImage" />
        <dc:title />
      </cc:Work>
    </rdf:RDF>
  </metadata>
  <g
     inkscape:label="Layer 1"
     inkscape:groupmode="layer"
     id="layer1"
     transform="translate(-266.937,-95.869222)">
    <path
       style="color:#000000;fill:#ffa76d;fill-opacity:0.18000004;fill-rule:nonzero;stroke:#000000;stroke-width:0.75;stroke-linecap:butt;stroke-linejoin:miter;stroke-miterlimit:4;stroke-opacity:1;stroke-dasharray:none;stroke-dashoffset:0;marker:none;visibility:visible;display:inline;overflow:visible"
       d="M 354.90625 125.34375 C 333.36228 125.14529 312.22266 137.31813 303.125 157.375 C 298.22899 182.65073 304.19818 208.6331 302.6875 234.1875 C 302.221 257.55902 278.15613 269.52351 258.75 275.3125 C 237.85008 272.78182 216.40375 263.52594 195.15625 270.1875 C 170.54275 276.70973 157.15445 301.63871 157.78125 325.90625 L 30.6875 325.90625 A 24.593683 23.37521 0 0 0 6.09375 349.28125 L 6.09375 539.78125 A 24.593683 23.37521 0 0 0 30.6875 563.15625 L 683.1875 563.15625 A 24.593683 23.37521 0 0 0 707.78125 539.78125 L 707.78125 349.28125 A 24.593683 23.37521 0 0 0 683.1875 325.90625 L 551.5625 325.90625 C 551.70868 322.04507 551.49775 318.18573 550.90625 314.40625 C 549.27688 279.40651 506.85605 257.84309 475.84375 270.0625 C 447.18146 284.52478 409.67098 262.86603 405.03125 231.9375 C 403.84145 213.6912 409.75943 195.65257 408.53125 177.25 C 411.6123 152.47312 390.61584 130.0552 366.84375 126.75 C 362.89977 125.83757 358.89587 125.3805 354.90625 125.34375 z "
       transform="translate(266.937,95.869222)"
       id="elipseA" />
    <path
       sodipodi:type="inkscape:offset"
       inkscape:radius="7.323606"
       inkscape:original="M 372.46875 373 L 372.46875 503.375 L 473.53125 503.375 L 473.53125 373 L 372.46875 373 z "
       style="color:#000000;fill:#ffff8e;fill-opacity:0.18000004;fill-rule:nonzero;stroke:#000000;stroke-width:0.23604085999999999;stroke-linecap:butt;stroke-linejoin:miter;stroke-miterlimit:4;stroke-opacity:1;stroke-dasharray:none;stroke-dashoffset:0;marker:none;visibility:visible;display:inline;overflow:visible"
       id="elipseB"
       d="M 372.46875,365.6875 A 7.3243384,7.3243384 0 0 0 365.15625,373 l 0,130.375 a 7.3243384,7.3243384 0 0 0 7.3125,7.3125 l 101.0625,0 a 7.3243384,7.3243384 0 0 0 7.3125,-7.3125 l 0,-130.375 a 7.3243384,7.3243384 0 0 0 -7.3125,-7.3125 l -101.0625,0 z"
       transform="matrix(3.0788838,0,0,3.2791015,-505.85489,-1015.6844)"
       inkscape:label="#path6829" />
    <path
       style="fill:#8bff8b;fill-opacity:0.18431373;stroke:#000000;stroke-width:0.75000000000000000;stroke-miterlimit:4;stroke-opacity:1;stroke-dasharray:none"
       d="m 408.60329,552.09783 c -49.50716,-10.69782 -90.76011,-52.42995 -102.32853,-101.44198 -0.7923,-30.51994 -5.99848,-63.9179 10.51554,-91.50927 28.87227,-60.19474 105.8442,-91.16622 168.02718,-66.03307 38.40706,14.70214 62.37609,53.62642 103.69728,62.6469 46.78695,14.95129 97.90758,-5.41593 131.20079,-39.18563 48.13311,-42.6094 126.80186,-42.47832 174.4822,0.76452 25.23177,23.06071 47.17638,55.38568 43.70115,91.14251 1.07569,30.76886 -0.6033,63.98288 -21.57151,88.60602 -35.03904,52.96508 -110.30888,72.5868 -166.95763,43.93775 -35.87317,-16.47457 -59.70388,-54.94883 -101.23392,-59.63145 -29.28802,-8.53293 -61.05089,-1.0652 -87.73696,12.13403 -22.31878,13.25705 -38.25287,34.81124 -62.36976,45.46001 -26.46836,15.64079 -59.67707,17.08384 -89.42583,13.10966 z"
       id="elipseD"
       inkscape:label="#path8609"
       inkscape:connector-curvature="0" />
    <path
       style="fill:#2fe6e6;fill-opacity:0.22463769000000000;stroke:#000000;stroke-width:0.75000000000000000;stroke-miterlimit:4;stroke-opacity:1;stroke-dasharray:none"
       d="M 353.8125 165.625 C 343.00663 166.00878 333.7229 175.85106 331.96875 190.96875 C 312.35976 194.71305 294.28555 202.80902 278.8125 214.21875 C 268.60271 206.05893 259.6827 203.59651 253.03125 207.15625 C 234.91621 216.85114 231.6017 231.97667 244.71875 245.09375 C 245.5556 245.9306 246.32791 246.76625 247.09375 247.59375 C 236.86921 263.02697 229.79989 280.74149 226.84375 299.8125 C 206.28622 301.77006 199.21875 307.90019 199.21875 323.5625 C 199.21875 339.56135 206.56029 345.61912 228.15625 347.4375 C 231.89427 365.1121 239.16096 381.4773 249.21875 395.75 C 236.64175 410.33436 234.6104 422.97588 243.25 433.125 C 250.96358 442.18625 267.47032 443.39626 273.9375 436.25 C 276.6483 433.25454 279.55756 430.74022 282.5625 428.65625 C 297.09074 438.60633 313.73097 445.71891 331.65625 449.1875 C 331.65968 449.40565 331.65625 449.62317 331.65625 449.84375 C 331.65625 466.03287 336.15508 475.35896 345.8125 479.25 C 356.54067 483.57248 359.50485 483.16934 368.5 476.09375 C 375.09549 470.90572 377.03898 465.91789 378.28125 450.9375 C 378.31517 450.52852 378.37141 450.20644 378.40625 449.8125 C 396.68045 446.78463 413.68989 439.98949 428.59375 430.25 C 435.51418 439.05049 448.66365 444.65008 460.65625 438.71875 C 467.21333 435.47572 471.82576 429.1469 472.03125 422.46875 C 472.28326 414.27892 470.84923 408.6305 466.40625 404.1875 C 464.7034 402.48466 463.15022 400.85452 461.75 399.28125 C 472.73836 384.73298 480.78081 367.83684 484.96875 349.46875 C 493.56933 349.06807 498.52414 346.88215 503.9375 341.46875 C 520.03844 325.36786 509.78355 302.65792 486.625 299.375 C 483.44612 279.31849 475.72783 260.76641 464.5625 244.8125 C 465.25369 244.08068 465.97902 243.36473 466.71875 242.625 C 474.51625 234.8275 474.22169 223.13121 466.03125 213.6875 C 457.37648 203.70853 444.98787 203.55508 432.96875 212.9375 C 416.87116 201.46933 398.07047 193.57355 377.71875 190.3125 C 376.41095 179.66559 374.16238 175.46985 368.28125 170.84375 C 363.50833 167.08937 358.51153 165.45811 353.8125 165.625 z "
       transform="translate(266.937,95.869222)"
       id="elipseF" />
    <text
       xml:space="preserve"
       style="font-size:18.11433983px;font-style:normal;font-weight:normal;line-height:125%;letter-spacing:0px;word-spacing:0px;fill:#ff6706;fill-opacity:1;stroke:none;font-family:Sans"
       x="394.97287"
       y="679.44971"
       id="labelA"
       sodipodi:linespacing="125%"><tspan
         sodipodi:role="line"
         id="tspan2996"
         x="394.97287"
         y="679.44971">Set A</tspan></text>
    <text
       xml:space="preserve"
       style="font-size:18.11433983px;font-style:normal;font-weight:normal;line-height:125%;letter-spacing:0px;word-spacing:0px;fill:#ffc113;fill-opacity:1;stroke:none;font-family:Sans"
       x="752.01154"
       y="159.47475"
       id="labelB"
       sodipodi:linespacing="125%"><tspan
         sodipodi:role="line"
         id="tspan2996-1"
         x="752.01154"
         y="159.47475">Set B</tspan></text>
    <text
       xml:space="preserve"
       style="font-size:18.11433983px;font-style:normal;font-weight:normal;line-height:125%;letter-spacing:0px;word-spacing:0px;fill:#009d00;fill-opacity:0.77173911;stroke:none;font-family:Sans"
       x="271.96078"
       y="322.73135"
       id="labelD"
       sodipodi:linespacing="125%"><tspan
         sodipodi:role="line"
         id="tspan2996-8"
         x="271.96078"
         y="322.73135">Set D</tspan></text>
    <text
       xml:space="preserve"
       style="font-size:18.11433983px;font-style:normal;font-weight:normal;line-height:125%;letter-spacing:0px;word-spacing:0px;fill:#3352f5;fill-opacity:0.84782607;stroke:none;font-family:Sans"
       x="543.28156"
       y="207.31473"
       id="labelE"
       sodipodi:linespacing="125%"><tspan
         sodipodi:role="line"
         id="tspan2996-18"
         x="543.28156"
         y="207.31473">Set E </tspan></text>
    <text
       xml:space="preserve"
       style="font-size:18.11433983px;font-style:normal;font-weight:normal;line-height:125%;letter-spacing:0px;word-spacing:0px;fill:#6c6c73;fill-opacity:0.94202899;stroke:none;font-family:Sans"
       x="476.14618"
       y="255.59599"
       id="labelC"
       sodipodi:linespacing="125%"><tspan
         sodipodi:role="line"
         id="tspan2996-3"
         x="476.14618"
         y="255.59599">Set C</tspan></text>
    <text
       xml:space="preserve"
       style="font-size:18.11433983px;font-style:normal;font-weight:normal;line-height:125%;letter-spacing:0px;word-spacing:0px;fill:#22c4e6;fill-opacity:0.8405797;stroke:none;font-family:Sans"
       x="372.39157"
       y="231.18307"
       id="labelF"
       sodipodi:linespacing="125%"><tspan
         sodipodi:role="line"
         id="tspan2996-7"
         x="372.39157"
         y="231.18307">Set F</tspan></text>
    <path
       style="fill:none;stroke:#000000;stroke-width:1.1933744;stroke-linecap:butt;stroke-linejoin:miter;stroke-miterlimit:4;stroke-opacity:0.49275363;stroke-dasharray:1.19337442, 3.58012327;stroke-dashoffset:0"
       d="M 509.21919,297.87808 412.6879,241.628"
       id="path3829"
       inkscape:connector-curvature="0" />
    <path
       style="fill:none;stroke:#000000;stroke-width:1.618;stroke-linecap:butt;stroke-linejoin:miter;stroke-miterlimit:4;stroke-opacity:0.33695655000000002;stroke-dasharray:1.618,6.472;stroke-dashoffset:0"
       d="M 554.67058,295.72439 528.9485,277.53259"
       id="path3851"
       inkscape:connector-curvature="0" />
    <text
       xml:space="preserve"
       style="font-size:10.35105038px;font-style:normal;font-weight:normal;line-height:125%;letter-spacing:0px;word-spacing:0px;fill:#000000;fill-opacity:1;stroke:none;font-family:Sans"
       x="864.37592"
       y="240.4576"
       id="b"
       sodipodi:linespacing="125%"><tspan
         sodipodi:role="line"
         id="tspan3875"
         x="864.37592"
         y="240.4576">b</tspan></text>
    <text
       xml:space="preserve"
       style="font-size:10.35105038px;font-style:normal;font-weight:normal;line-height:125%;letter-spacing:0px;word-spacing:0px;fill:#000000;fill-opacity:1;stroke:none;font-family:Sans"
       x="384.32159"
       y="360.47119"
       id="d"
       sodipodi:linespacing="125%"><tspan
         sodipodi:role="line"
         id="tspan3887"
         x="384.32159"
         y="360.47119">d</tspan></text>
    <text
       xml:space="preserve"
       style="font-size:10.35105038px;font-style:normal;font-weight:normal;line-height:125%;letter-spacing:0px;word-spacing:0px;fill:#000000;fill-opacity:1;stroke:none;font-family:Sans"
       x="541.08777"
       y="331.36356"
       id="cf"
       sodipodi:linespacing="125%"><tspan
         sodipodi:role="line"
         x="541.08777"
         y="331.36356"
         id="tspan3909">cf</tspan></text>
    <text
       xml:space="preserve"
       style="font-size:10.35105038px;font-style:normal;font-weight:normal;line-height:125%;letter-spacing:0px;word-spacing:0px;fill:#000000;fill-opacity:1;stroke:none;font-family:Sans"
       x="824.56946"
       y="354.6442"
       id="bd"
       sodipodi:linespacing="125%"><tspan
         sodipodi:role="line"
         id="tspan3931"
         x="824.56946"
         y="354.6442">bd</tspan></text>
    <text
       xml:space="preserve"
       style="font-size:10.35105038px;font-style:normal;font-weight:normal;line-height:125%;letter-spacing:0px;word-spacing:0px;fill:#000000;fill-opacity:1;stroke:none;font-family:Sans"
       x="580.76868"
       y="587.06366"
       id="ae"
       sodipodi:linespacing="125%"><tspan
         sodipodi:role="line"
         id="tspan3963"
         x="580.76868"
         y="587.06366">ae</tspan></text>
    <text
       xml:space="preserve"
       style="font-size:10.35105038px;font-style:normal;font-weight:normal;line-height:125%;letter-spacing:0px;word-spacing:0px;fill:#000000;fill-opacity:1;stroke:none;font-family:Sans"
       x="629.28925"
       y="587.06366"
       id="abe"
       sodipodi:linespacing="125%"><tspan
         sodipodi:role="line"
         id="tspan3967"
         x="629.28925"
         y="587.06366">abe</tspan></text>
    <text
       xml:space="preserve"
       style="font-size:10.35105038px;font-style:normal;font-weight:normal;line-height:125%;letter-spacing:0px;word-spacing:0px;fill:#000000;fill-opacity:1;stroke:none;font-family:Sans"
       x="575.97656"
       y="507.39404"
       id="acef"
       sodipodi:linespacing="125%"><tspan
         sodipodi:role="line"
         id="tspan3987"
         x="575.97656"
         y="507.39404">acef</tspan></text>
    <text
       xml:space="preserve"
       style="font-size:10.35105038px;font-style:normal;font-weight:normal;line-height:125%;letter-spacing:0px;word-spacing:0px;fill:#000000;fill-opacity:1;stroke:none;font-family:Sans"
       x="625.09613"
       y="508.59213"
       id="abcef"
       sodipodi:linespacing="125%"><tspan
         sodipodi:role="line"
         id="tspan3991"
         x="625.09613"
         y="508.59213">abcef</tspan></text>
    <text
       xml:space="preserve"
       style="font-size:10.35105038px;font-style:normal;font-weight:normal;line-height:125%;letter-spacing:0px;word-spacing:0px;fill:#000000;fill-opacity:1;stroke:none;font-family:Sans"
       x="441.79623"
       y="451.08624"
       id="ade"
       sodipodi:linespacing="125%"><tspan
         sodipodi:role="line"
         id="tspan3995"
         x="441.79623"
         y="451.08624">ade</tspan></text>
    <text
       xml:space="preserve"
       style="font-size:10.35105038px;font-style:normal;font-weight:normal;line-height:125%;letter-spacing:0px;word-spacing:0px;fill:#000000;fill-opacity:1;stroke:none;font-family:Sans"
       x="760.47437"
       y="461.86865"
       id="abde"
       sodipodi:linespacing="125%"><tspan
         sodipodi:role="line"
         id="tspan3999"
         x="760.47437"
         y="461.86865">abde</tspan></text>
    <text
       xml:space="preserve"
       style="font-size:10.35105038px;font-style:normal;font-weight:normal;line-height:125%;letter-spacing:0px;word-spacing:0px;fill:#000000;fill-opacity:1;stroke:none;font-family:Sans"
       x="654.69019"
       y="448.09122"
       id="abcdef"
       sodipodi:linespacing="125%"><tspan
         sodipodi:role="line"
         id="tspan4051"
         x="654.69019"
         y="448.09122">abcdef</tspan></text>
    <text
       xml:space="preserve"
       style="font-size:10.35105038px;font-style:normal;font-weight:normal;line-height:125%;letter-spacing:0px;word-spacing:0px;fill:#000000;fill-opacity:1;stroke:none;font-family:Sans"
       x="556.81775"
       y="446.29413"
       id="acdef"
       sodipodi:linespacing="125%"><tspan
         sodipodi:role="line"
         id="tspan4055"
         x="556.81775"
         y="446.29413">acdef</tspan></text>
    <text
       xml:space="preserve"
       style="font-size:10.35105038px;font-style:normal;font-weight:normal;line-height:125%;letter-spacing:0px;word-spacing:0px;fill:#000000;fill-opacity:1;stroke:none;font-family:Sans"
       x="676.61169"
       y="330.08441"
       id="bcf"
       sodipodi:linespacing="125%"><tspan
         sodipodi:role="line"
         id="tspan4083"
         x="676.61169"
         y="330.08441">bcf</tspan></text>
    <text
       xml:space="preserve"
       style="font-size:10.35105038px;font-style:normal;font-weight:normal;line-height:125%;letter-spacing:0px;word-spacing:0px;fill:#000000;fill-opacity:1;stroke:none;font-family:Sans"
       x="688.78522"
       y="349.25305"
       id="bcdf"
       sodipodi:linespacing="125%"><tspan
         sodipodi:role="line"
         id="tspan4087"
         x="688.78522"
         y="349.25305">bcdf</tspan></text>
    <text
       xml:space="preserve"
       style="font-size:10.35105038px;font-style:normal;font-weight:normal;line-height:125%;letter-spacing:0px;word-spacing:0px;fill:#000000;fill-opacity:1;stroke:none;font-family:Sans"
       x="521.86188"
       y="350.65402"
       id="cdf"
       sodipodi:linespacing="125%"><tspan
         sodipodi:role="line"
         id="tspan4095"
         x="521.86188"
         y="350.65402">cdf</tspan></text>
    <text
       xml:space="preserve"
       style="font-size:18.11433983px;font-style:normal;font-weight:normal;line-height:125%;letter-spacing:0px;word-spacing:0px;fill:#009d00;fill-opacity:0.77173911;stroke:none;font-family:Sans"
       x="270.14035"
       y="338.46307"
       id="totalD"
       sodipodi:linespacing="125%"
       inkscape:label="#labelD-0"><tspan
         sodipodi:role="line"
         id="tspan2996-8-1"
         x="270.14035"
         y="338.46307">(total)</tspan></text>
    <text
       xml:space="preserve"
       style="font-size:18.11433983px;font-style:normal;font-weight:normal;line-height:125%;letter-spacing:0px;word-spacing:0px;fill:#22c4e6;fill-opacity:0.8405797;stroke:none;font-family:Sans"
       x="370.89606"
       y="246.46309"
       id="totalF"
       sodipodi:linespacing="125%"
       inkscape:label="#labelF-1"><tspan
         sodipodi:role="line"
         id="tspan2996-7-5"
         x="370.89606"
         y="246.46309">(total)</tspan></text>
    <text
       xml:space="preserve"
       style="font-size:18.11433983px;font-style:normal;font-weight:normal;line-height:125%;letter-spacing:0px;word-spacing:0px;fill:#6c6c73;fill-opacity:0.94202899;stroke:none;font-family:Sans"
       x="473.74622"
       y="271.4631"
       id="totalC"
       sodipodi:linespacing="125%"
       inkscape:label="#labelC-9"><tspan
         sodipodi:role="line"
         id="tspan2996-3-3"
         x="473.74622"
         y="271.4631">(total)</tspan></text>
    <text
       xml:space="preserve"
       style="font-size:18.11433983px;font-style:normal;font-weight:normal;line-height:125%;letter-spacing:0px;word-spacing:0px;fill:#3352f5;fill-opacity:0.84782607;stroke:none;font-family:Sans"
       x="541.84796"
       y="222.46309"
       id="totalE"
       sodipodi:linespacing="125%"
       inkscape:label="#labelE-6"><tspan
         sodipodi:role="line"
         id="tspan2996-18-0"
         x="541.84796"
         y="222.46309">(total)</tspan></text>
    <text
       xml:space="preserve"
       style="font-size:18.11433983px;font-style:normal;font-weight:normal;line-height:125%;letter-spacing:0px;word-spacing:0px;fill:#ffc113;fill-opacity:1;stroke:none;font-family:Sans"
       x="751.00714"
       y="175.46309"
       id="totalB"
       sodipodi:linespacing="125%"
       inkscape:label="#labelB-6"><tspan
         sodipodi:role="line"
         id="tspan2996-1-9"
         x="751.00714"
         y="175.46309">(total)</tspan></text>
    <text
       xml:space="preserve"
       style="font-size:18.11433983px;font-style:normal;font-weight:normal;line-height:125%;letter-spacing:0px;word-spacing:0px;fill:#ff6706;fill-opacity:1;stroke:none;font-family:Sans"
       x="392.45877"
       y="695.46307"
       id="totalA"
       sodipodi:linespacing="125%"
       inkscape:label="#labelA-4"><tspan
         sodipodi:role="line"
         id="tspan2996-9"
         x="392.45877"
         y="695.46307">(total)</tspan></text>
  </g>
</svg>
